<?xml version="1.0" encoding="UTF-8"?>
<!-- Generator: Adobe Illustrator 16.0.4, SVG Export Plug-In . SVG Version: 6.00 Build 0)  -->
<!DOCTYPE svg PUBLIC "-//W3C//DTD SVG 1.1//EN" "http://www.w3.org/Graphics/SVG/1.1/DTD/svg11.dtd">
<svg version="1.1" id="Layer_1" xmlns="http://www.w3.org/2000/svg" xmlns:xlink="http://www.w3.org/1999/xlink" x="0px" y="0px" width="214px" height="117px" viewBox="0 0 214 117" enable-background="new 0 0 214 117" xml:space="preserve">
<g>
	<g>
		<path fill="#21659E" d="M3.511,1.94c0-0.191-0.048-0.239-0.655-0.239c-0.752,0-1.104,0.7-1.36,1.321    c-0.192,0.491-0.32,0.954-0.512,0.954c-0.16,0-0.208-0.081-0.208-0.382c0-0.064,0.016-0.206,0.032-0.398    C0.856,2.687,0.953,1.94,1.064,1.368c0.08-0.398,0.16-0.637,0.288-0.637c0.176,0,0.224,0.128,0.288,0.271    c0.064,0.127,0.144,0.255,0.368,0.255h4.479c0.512,0,0.688-0.097,0.784-0.255C7.35,0.89,7.414,0.731,7.59,0.731    c0.16,0,0.208,0.144,0.208,0.462c0,0.19-0.016,0.382-0.016,0.572c0,0.446-0.048,1.145-0.08,1.589    C7.653,3.847,7.558,3.991,7.414,3.991c-0.224,0-0.272-0.462-0.368-0.955c-0.16-0.65-0.4-1.288-1.215-1.319    C5.639,1.717,5.463,1.7,5.335,1.7c-0.304,0-0.352,0.081-0.352,0.223v8.109c0,0.477,0.176,0.7,0.4,0.731    c0.432,0.08,0.735,0.095,0.735,0.287c0,0.207-0.191,0.223-0.384,0.223c-0.272,0-0.576-0.064-1.471-0.064    c-1.087,0-1.296,0.064-1.536,0.064c-0.256,0-0.352-0.064-0.352-0.208c0-0.159,0.063-0.237,0.607-0.301    C3.43,10.716,3.51,10.493,3.51,9.938L3.511,1.94L3.511,1.94z"/>
		<path fill="#21659E" d="M9.247,1.575c0-0.303-0.08-0.398-0.432-0.462C8.528,1.048,8.432,1.034,8.432,0.89    c0-0.159,0.112-0.174,0.448-0.271c0.671-0.221,1.023-0.38,1.247-0.477C10.335,0.047,10.399,0,10.495,0    c0.064,0,0.096,0.064,0.096,0.287v4.53c0,0.095,0.032,0.142,0.096,0.142s0.128-0.047,0.191-0.095    c0.352-0.317,0.96-0.954,1.872-0.954c1.008,0,1.807,0.652,1.855,1.907v4.357c0,0.46,0.176,0.636,0.496,0.683    c0.272,0.047,0.368,0.097,0.368,0.223c0,0.142-0.112,0.191-0.24,0.191c-0.08,0-0.512-0.064-1.264-0.064    c-0.848,0-1.023,0.064-1.199,0.064c-0.192,0-0.288-0.049-0.288-0.208c0-0.126,0.095-0.159,0.256-0.19    c0.367-0.08,0.527-0.189,0.527-0.541v-4.34c0-0.381-0.096-0.683-0.271-0.89c-0.208-0.254-0.512-0.382-0.912-0.382    c-0.368,0-0.751,0.159-1.04,0.397c-0.271,0.239-0.448,0.557-0.448,0.907v4.229c0,0.349,0.176,0.524,0.624,0.619    c0.24,0.048,0.288,0.095,0.288,0.207c0,0.142-0.112,0.191-0.24,0.191c-0.128,0-0.288-0.064-1.392-0.064    c-0.832,0-0.975,0.064-1.216,0.064c-0.127,0-0.24-0.064-0.24-0.208c0-0.126,0.112-0.207,0.256-0.237    c0.48-0.048,0.576-0.207,0.576-0.78L9.247,1.575L9.247,1.575z"/>
		<path fill="#21659E" d="M17.637,7.329c-0.288,0-0.4,0.111-0.4,0.365c0,1.639,0.704,2.91,1.808,2.91    c0.735,0,1.167-0.365,1.392-0.906c0.127-0.287,0.16-0.493,0.288-0.493c0.096,0,0.16,0.047,0.16,0.223    c0,0.239-0.081,0.524-0.224,0.794c-0.32,0.683-1.055,1.193-1.967,1.193c-1.807,0-2.895-1.527-2.895-3.641    c0-2.624,1.343-3.959,2.878-3.959c1.279,0,2.208,0.954,2.208,2.56c0,0.89-0.016,0.954-0.464,0.954H17.637z M17.269,6.456    c0,0.302,0.048,0.38,0.608,0.38c0.304,0,0.56-0.031,0.784-0.062C19.14,6.71,19.46,6.582,19.54,6.456    c0.128-0.127,0.176-0.303,0.176-0.668c0-0.937-0.432-1.51-1.055-1.51c-0.816,0-1.392,1.05-1.392,2.163V6.456z"/>
		<path fill="#21659E" d="M31.76,10.415c0,0.095-0.032,0.19-0.08,0.271c-0.064,0.126-0.192,0.221-0.368,0.318    c-0.464,0.285-1.248,0.46-2.079,0.46c-2.287,0-4.078-1.955-4.078-5.023c0-3.37,2.031-5.438,4.302-5.438    c0.944,0,1.583,0.144,1.967,0.398c0.16,0.064,0.208,0.223,0.224,0.906v1.145c-0.032,0.46-0.08,0.508-0.24,0.508    c-0.16,0-0.256-0.19-0.448-0.7c-0.432-1.096-0.768-1.812-1.615-1.812c-1.359,0-2.479,1.957-2.479,4.77    c0,3.259,1.024,4.801,2.463,4.801c0.432,0,0.72-0.112,0.864-0.444c0.08-0.192,0.112-0.415,0.112-0.747V7.792    c0-0.844-0.176-0.875-0.543-0.939c-0.384-0.047-0.544-0.064-0.544-0.287c0-0.095,0.112-0.19,0.352-0.19    c0.368,0.017,0.768,0.064,1.439,0.064c0.704,0,1.024-0.064,1.264-0.064c0.256,0,0.336,0.064,0.336,0.19    c0,0.239-0.144,0.176-0.496,0.287c-0.24,0.081-0.352,0.143-0.352,0.716L31.76,10.415L31.76,10.415z"/>
		<path fill="#21659E" d="M33.907,5.771c0-0.524-0.16-0.636-0.576-0.636c-0.128-0.016-0.208-0.047-0.208-0.175    c0-0.159,0.096-0.206,0.336-0.27c0.32-0.11,0.72-0.237,1.104-0.555c0.208-0.207,0.304-0.318,0.432-0.318    c0.064,0,0.128,0.079,0.128,0.238c0.016,0.207,0.016,0.477,0.016,0.796c0,0.207,0,0.365,0.064,0.365    c0.144,0,0.224-0.334,0.463-0.699c0.224-0.334,0.544-0.7,1.12-0.7c0.608,0,0.959,0.477,0.959,1.193    c0,0.588-0.224,1.032-0.751,1.032c-0.432,0-0.576-0.285-0.624-0.619c-0.032-0.254-0.063-0.524-0.256-0.524    c-0.288,0-0.496,0.302-0.639,0.667c-0.145,0.38-0.225,0.746-0.225,1.016v3.275c0,0.7,0.064,0.89,0.576,0.97    c0.417,0.078,0.576,0.111,0.576,0.254c0,0.159-0.112,0.191-0.384,0.191c-0.176,0-0.4-0.064-1.423-0.064    c-0.816,0-1.04,0.064-1.216,0.064c-0.208,0-0.336-0.049-0.336-0.191c0-0.159,0.144-0.19,0.4-0.254    c0.384-0.048,0.464-0.128,0.464-0.748V5.771L33.907,5.771z"/>
		<path fill="#21659E" d="M39.918,7.329c-0.288,0-0.4,0.111-0.4,0.365c0,1.639,0.704,2.91,1.808,2.91    c0.735,0,1.167-0.365,1.392-0.906c0.127-0.287,0.16-0.493,0.288-0.493c0.096,0,0.16,0.047,0.16,0.223    c0,0.239-0.081,0.524-0.224,0.794c-0.32,0.683-1.055,1.193-1.967,1.193c-1.807,0-2.895-1.527-2.895-3.641    c0-2.624,1.343-3.959,2.878-3.959c1.28,0,2.208,0.954,2.208,2.56c0,0.89-0.016,0.954-0.464,0.954H39.918z M39.55,6.456    c0,0.302,0.048,0.38,0.608,0.38c0.304,0,0.56-0.031,0.784-0.062c0.479-0.063,0.799-0.191,0.879-0.318    c0.128-0.127,0.176-0.303,0.176-0.668c0-0.937-0.432-1.51-1.055-1.51c-0.816,0-1.392,1.05-1.392,2.163V6.456z"/>
		<path fill="#21659E" d="M47.615,5.247c0-0.747-0.208-0.986-0.624-0.986c-0.736,0-1.088,0.59-1.312,1.368    c-0.112,0.349-0.304,0.619-0.528,0.795c-0.192,0.142-0.399,0.223-0.639,0.223c-0.32,0-0.448-0.112-0.448-0.43    c0-0.938,1.359-2.4,3.311-2.4c0.608,0,0.992,0.079,1.232,0.285c0.256,0.192,0.352,0.51,0.352,0.939v4.77    c0,0.396,0.144,0.572,0.416,0.572c0.288,0,0.416-0.142,0.479-0.301c0.08-0.159,0.112-0.318,0.224-0.318    c0.096,0,0.128,0.079,0.128,0.271c0,0.349-0.448,1.335-1.424,1.335c-0.687,0-0.863-0.541-0.975-0.858    c-0.048-0.128-0.096-0.223-0.176-0.223c-0.127,0-0.368,0.302-0.751,0.588c-0.352,0.287-0.832,0.541-1.471,0.541    c-0.736,0-1.28-0.51-1.28-1.447c0-0.794,0.432-1.352,1.775-2.227c0.544-0.349,0.912-0.572,1.167-0.762    c0.416-0.256,0.544-0.415,0.544-0.764V5.247z M45.536,9.715c0,0.588,0.304,0.89,0.751,0.89c0.336,0,0.624-0.19,0.928-0.477    c0.288-0.287,0.4-0.493,0.4-0.89V7.474c0-0.176-0.032-0.208-0.112-0.208c-0.081,0-0.16,0.017-0.368,0.175    c-0.336,0.223-0.655,0.493-0.896,0.764C45.807,8.65,45.535,9.142,45.535,9.7L45.536,9.715L45.536,9.715z"/>
		<path fill="#21659E" d="M52.456,9.841c0,0.588,0.192,0.716,0.496,0.716c0.288,0,0.464-0.223,0.592-0.43    c0.128-0.206,0.208-0.413,0.352-0.413c0.096,0,0.16,0.047,0.16,0.159c0,0.207-0.32,1.526-1.599,1.526    c-0.432,0-0.768-0.112-0.992-0.349c-0.24-0.239-0.352-0.621-0.352-1.129V4.817c0-0.143-0.08-0.207-0.176-0.238    c-0.096-0.017-0.256-0.017-0.368-0.017c-0.144-0.016-0.256-0.032-0.256-0.206c0-0.097,0.096-0.207,0.304-0.415    c0.448-0.396,0.816-0.826,1.375-1.779c0.16-0.287,0.192-0.382,0.304-0.382c0.096,0,0.16,0.031,0.16,0.349v1.542    c0,0.256,0.08,0.351,0.319,0.351h0.72c0.272,0,0.352,0.047,0.352,0.271c0,0.238-0.064,0.334-0.384,0.334h-0.751    c-0.192,0-0.256,0.062-0.256,0.318V9.841L52.456,9.841z"/>
		<path fill="#21659E" d="M56.243,7.329c-0.288,0-0.4,0.111-0.4,0.365c0,1.639,0.704,2.91,1.807,2.91    c0.736,0,1.167-0.365,1.392-0.906c0.128-0.287,0.16-0.493,0.288-0.493c0.096,0,0.16,0.047,0.16,0.223    c0,0.239-0.08,0.524-0.224,0.794c-0.32,0.683-1.055,1.193-1.967,1.193c-1.807,0-2.895-1.527-2.895-3.641    c0-2.624,1.343-3.959,2.879-3.959c1.279,0,2.207,0.954,2.207,2.56c0,0.89-0.016,0.954-0.464,0.954H56.243z M55.875,6.456    c0,0.302,0.047,0.38,0.607,0.38c0.304,0,0.56-0.031,0.784-0.062c0.479-0.063,0.799-0.191,0.879-0.318    c0.128-0.127,0.176-0.303,0.176-0.668c0-0.937-0.432-1.51-1.055-1.51c-0.816,0-1.392,1.05-1.392,2.163L55.875,6.456L55.875,6.456z    "/>
		<path fill="#21659E" d="M61.005,5.771c0-0.524-0.16-0.636-0.576-0.636c-0.128-0.016-0.208-0.047-0.208-0.175    c0-0.159,0.096-0.206,0.336-0.27c0.32-0.11,0.72-0.237,1.104-0.555c0.208-0.207,0.304-0.318,0.432-0.318    c0.063,0,0.128,0.079,0.128,0.238c0.016,0.207,0.016,0.477,0.016,0.796c0,0.207,0,0.365,0.064,0.365    c0.144,0,0.224-0.334,0.463-0.699c0.224-0.334,0.544-0.7,1.12-0.7c0.608,0,0.96,0.477,0.96,1.193c0,0.588-0.224,1.032-0.752,1.032    c-0.432,0-0.576-0.285-0.624-0.619c-0.032-0.254-0.064-0.524-0.256-0.524c-0.288,0-0.496,0.302-0.64,0.667    c-0.145,0.381-0.224,0.747-0.224,1.018v3.275c0,0.7,0.063,0.89,0.576,0.97c0.416,0.078,0.576,0.111,0.576,0.254    c0,0.159-0.112,0.191-0.384,0.191c-0.176,0-0.4-0.064-1.423-0.064c-0.816,0-1.04,0.064-1.216,0.064    c-0.208,0-0.335-0.049-0.335-0.191c0-0.159,0.144-0.19,0.399-0.254c0.384-0.048,0.464-0.128,0.464-0.748V5.771z"/>
	</g>
	<g>
		<path fill="#21659E" d="M1.838,16.553c0-0.899-0.175-1.275-0.7-1.363c-0.671-0.115-0.934-0.115-0.934-0.493    c0-0.376,0.438-0.406,0.729-0.406c0.438,0,1.021,0.059,1.517,0.059c0.496,0,1.138-0.059,1.576-0.059s0.496,0.261,0.962,1.189    c1.138,2.262,4.463,8.555,5.922,11.195c0.438,0.753,0.496,0.781,0.554,0.781c0.117,0,0.146-0.114,0.146-0.346V17.104    c0-1.421-0.321-1.826-0.904-1.914c-0.642-0.086-1.021-0.203-1.021-0.493c0-0.232,0.175-0.406,0.409-0.406    c0.321,0,0.788,0.117,2.013,0.117c0.671,0,1.226-0.117,1.722-0.117c0.379,0,0.496,0.088,0.496,0.376    c0,0.378-0.35,0.437-1.021,0.522c-0.583,0.117-0.788,0.522-0.788,1.392v15.834c0,0.696,0,0.755-0.583,0.755    c-0.438,0-0.496-0.117-1.138-1.363c-0.175-0.349-0.35-0.695-0.554-1.016c-2.188-4.146-4.493-8.237-6.623-12.44    c-0.292-0.61-0.467-0.957-0.642-0.957c-0.146,0-0.204,0.085-0.204,0.52v10.499c0,2.407,0.204,3.219,0.846,3.364    c0.729,0.174,1.43,0.058,1.43,0.58c0,0.261-0.175,0.319-0.496,0.319c-0.35,0-0.525-0.117-1.984-0.117    c-1.341,0-1.779,0.117-2.217,0.117c-0.262,0-0.379-0.117-0.379-0.291c0-0.405,0.875-0.464,1.225-0.608    c0.554-0.203,0.642-0.696,0.642-1.509L1.838,16.553L1.838,16.553z"/>
		<path fill="#21659E" d="M18.163,25.485c-0.525,0-0.729,0.203-0.729,0.666c0,2.987,1.284,5.308,3.296,5.308    c1.342,0,2.129-0.667,2.538-1.653c0.233-0.522,0.292-0.898,0.525-0.898c0.175,0,0.292,0.088,0.292,0.405    c0,0.435-0.146,0.957-0.409,1.45c-0.583,1.248-1.925,2.176-3.588,2.176c-3.296,0-5.28-2.784-5.28-6.642    c0-4.784,2.451-7.222,5.251-7.222c2.334,0,4.026,1.741,4.026,4.669c0,1.624-0.029,1.741-0.846,1.741H18.163L18.163,25.485z     M17.492,23.891c0,0.55,0.087,0.696,1.109,0.696c0.554,0,1.021-0.059,1.429-0.117c0.875-0.115,1.458-0.347,1.604-0.579    c0.233-0.231,0.321-0.551,0.321-1.218c0-1.713-0.787-2.755-1.925-2.755c-1.488,0-2.538,1.915-2.538,3.944V23.891z"/>
		<path fill="#21659E" d="M30.603,32.011c-0.146,0.464-0.262,0.812-0.933,0.812c-0.583,0-0.642-0.377-0.759-0.783l-3.354-10.615    c-0.292-0.897-0.526-1.159-0.846-1.245c-0.35-0.059-0.496-0.203-0.496-0.435c0-0.261,0.146-0.407,0.496-0.407    c0.67,0,1.284,0.117,1.925,0.117c0.641,0,1.284-0.117,1.896-0.117c0.379,0,0.583,0.088,0.583,0.378    c0,0.232-0.321,0.319-0.612,0.376c-0.321,0.088-0.642,0.262-0.642,0.784c0,0.261,0.03,0.52,0.292,1.275l1.984,5.946    c0.117,0.404,0.233,0.637,0.35,0.637c0.175,0,0.321-0.319,0.467-0.784l1.167-3.771c0.117-0.375,0.205-0.666,0.205-0.898    c0-0.317-0.205-0.898-0.671-2.146c-0.175-0.521-0.525-0.842-0.875-0.928c-0.321-0.117-0.613-0.175-0.613-0.437    c0-0.26,0.205-0.435,0.583-0.435c0.671,0,1.371,0.117,2.013,0.117c0.7,0,1.43-0.117,1.954-0.117c0.526,0,0.613,0.146,0.613,0.407    c0,0.29-0.32,0.347-0.642,0.406c-0.35,0.059-0.671,0.203-0.671,0.638c0,0.173,0.088,0.667,0.205,1.072L36,27.892    c0.117,0.407,0.233,0.812,0.409,0.812c0.146,0,0.292-0.607,0.438-1.101l1.604-5.656c0.117-0.405,0.146-0.87,0.146-0.957    c0-0.58-0.409-0.726-0.817-0.782c-0.408-0.059-0.846-0.117-0.846-0.437c0-0.232,0.175-0.435,0.467-0.435    c0.467,0,0.963,0.117,1.517,0.117c0.642,0,1.167-0.117,1.517-0.117c0.263,0,0.438,0.117,0.438,0.407    c0,0.347-0.233,0.376-0.496,0.492c-0.292,0.088-0.613,0.291-0.817,0.9L36.438,32.01c-0.146,0.464-0.205,0.812-0.788,0.812    c-0.641,0-0.758-0.377-0.875-0.783l-1.984-6.845h-0.059L30.603,32.011z"/>
		<path fill="#21659E" d="M57.858,32.271c0-0.319,0.321-0.406,1.08-0.522c0.816-0.087,1.183-0.405,1.183-1.74    c0-3.046-0.262-8.989-0.379-12.006c-0.029-0.435-0.058-0.579-0.146-0.579c-0.117,0-0.146,0.145-0.233,0.376    c-0.292,0.784-0.963,3.249-3.268,10.933c-0.963,3.189-0.846,3.827-1.43,3.827c-0.292,0-0.408-0.231-0.729-1.624    c-0.817-3.422-3.18-11.397-3.675-13.166c-0.059-0.232-0.117-0.347-0.263-0.347s-0.146,0.232-0.204,0.638    c-0.205,2.465-0.033,7.104-0.033,9.598c0,1.943-0.146,3.916,0.729,4.09c0.525,0.116,1.371,0.116,1.371,0.522    c0,0.232-0.146,0.406-0.554,0.406c-0.525,0-0.875-0.117-2.042-0.117c-1.05,0-1.517,0.117-1.867,0.117    c-0.262,0-0.467-0.029-0.467-0.406c0-0.406,0.467-0.378,0.963-0.493c0.7-0.203,0.816-0.871,0.904-2.263    c0.146-2.87,0.179-9.859,0.179-12.268c0-1.594,0-1.912-0.875-2.058c-0.525-0.086-1.021-0.145-1.021-0.464    c0-0.405,0.409-0.435,0.729-0.435c0.642,0,1.429,0.088,2.071,0.088c0.467,0,1.196-0.088,1.604-0.088    c0.35,0,0.438,0.029,0.583,0.464c1.021,3.539,2.013,7.104,3.034,10.643c0.233,0.87,0.321,1.45,0.555,1.45    c0.204,0,0.292-0.261,0.525-1.101c1.021-3.539,2.042-7.077,3.092-10.586c0.146-0.638,0.321-0.87,0.612-0.87    c0.409,0,1.138,0.088,1.663,0.088c0.583,0,1.459-0.088,2.013-0.088c0.263,0,0.525,0.117,0.525,0.406    c0,0.319-0.35,0.435-1.196,0.522c-0.379,0.029-0.583,0.435-0.583,1.624c0,2.64,0.1,10.064,0.188,13.544    c0.029,0.869,0.263,1.275,0.671,1.362c0.817,0.203,1.138,0.232,1.138,0.551c0,0.319-0.263,0.378-0.671,0.378    c-0.496,0-1.138-0.117-2.509-0.117c-1.138,0-2.071,0.117-2.567,0.117c-0.437,0-0.7-0.117-0.7-0.378V32.271z"/>
		<path fill="#21659E" d="M66.74,22.382c0-0.755-0.205-0.958-1.08-1.16c-0.292-0.059-0.409-0.173-0.409-0.347    c0-0.232,0.233-0.349,0.934-0.581c0.934-0.291,1.634-0.667,2.217-0.928c0.262-0.173,0.467-0.291,0.554-0.291    c0.175,0,0.233,0.117,0.233,0.437v1.392v9.513c0,0.869,0.029,1.246,0.992,1.449c0.525,0.146,0.7,0.202,0.7,0.464    c0,0.231-0.117,0.349-0.496,0.349c-0.554,0-1.079-0.117-2.421-0.117c-1.4,0-1.955,0.117-2.421,0.117    c-0.263,0-0.438-0.117-0.438-0.349s0.117-0.377,0.524-0.464c0.993-0.174,1.109-0.29,1.109-1.334v-8.15H66.74z M67.965,17.336    c-0.729,0-1.371-0.608-1.371-1.711c0-1.131,0.642-1.739,1.4-1.739c0.788,0,1.43,0.608,1.43,1.739c0,1.104-0.642,1.711-1.43,1.711    H67.965z"/>
		<path fill="#21659E" d="M73.553,14.987c0-0.551-0.146-0.725-0.788-0.84C72.24,14.03,72.094,14,72.094,13.739    c0-0.232,0.117-0.318,0.525-0.435c1.167-0.376,1.955-0.667,2.479-0.899c0.408-0.203,0.555-0.291,0.7-0.291    c0.175,0,0.205,0.175,0.205,0.581v18.154c0,0.725,0.291,0.782,1.196,1.015c0.321,0.087,0.583,0.146,0.583,0.435    c0,0.231-0.205,0.378-0.438,0.378c-0.292,0-0.612-0.117-2.538-0.117c-1.78,0-2.101,0.117-2.421,0.117    c-0.205,0-0.467-0.088-0.467-0.378c0-0.232,0.262-0.377,0.496-0.435c0.992-0.146,1.138-0.436,1.138-1.189V14.987H73.553z"/>
		<path fill="#21659E" d="M82.158,30.185c0,1.216,0.291,1.507,1.284,1.681c0.437,0.087,0.787,0.146,0.787,0.464    c0,0.231-0.146,0.349-0.583,0.349c-0.642,0-1.604-0.117-2.654-0.117c-0.992,0-1.78,0.117-2.247,0.117    c-0.613,0-0.758-0.117-0.758-0.349c0-0.262,0.146-0.377,0.583-0.464c0.875-0.116,1.138-0.377,1.138-1.566v-9.163    c0-0.464-0.321-0.552-0.7-0.609c-0.321-0.06-0.671-0.116-0.671-0.464s0.321-0.465,0.7-0.667c0.35-0.203,0.671-0.494,0.7-1.189    c0.059-2.059,0.467-3.595,1.196-4.669c0.73-1.014,1.78-1.536,3.005-1.536c1.488,0,2.275,0.435,2.275,1.565    c0,0.406-0.087,0.899-0.175,1.363c-0.117,0.522-0.379,0.957-0.759,0.957c-0.525,0-0.758-0.725-0.963-1.421    c-0.233-0.811-0.438-1.624-1.021-1.624c-0.758,0-1.196,1.104-1.196,4.408c0,0.61,0.03,1.16,0.03,1.653    c0.029,0.464,0.146,0.552,0.408,0.552h1.925c0.35,0,0.409,0.058,0.409,0.549c0,0.464-0.029,0.553-0.379,0.553h-1.546    c-0.67,0-0.787,0.173-0.787,0.754L82.158,30.185L82.158,30.185z"/>
		<path fill="#21659E" d="M89.741,32.938c-3.18,0-5.338-3.162-5.338-6.931c0-3.771,2.159-6.933,5.368-6.933    c3.238,0,5.397,3.162,5.397,6.933c0,3.769-2.159,6.931-5.397,6.931H89.741z M89.858,32.126c1.838,0,2.655-2.987,2.655-5.829    c0-3.249-0.904-6.409-2.8-6.409c-1.867,0-2.684,2.987-2.684,5.83c0,3.247,0.934,6.408,2.801,6.408H89.858z"/>
		<path fill="#21659E" d="M97.412,22.644c0-0.957-0.292-1.16-1.05-1.16c-0.233-0.029-0.379-0.089-0.379-0.32    c0-0.288,0.175-0.376,0.613-0.491c0.583-0.205,1.312-0.437,2.013-1.016c0.379-0.376,0.555-0.581,0.788-0.581    c0.117,0,0.233,0.146,0.233,0.437c0.029,0.376,0.029,0.87,0.029,1.448c0,0.379,0,0.667,0.117,0.667    c0.262,0,0.408-0.607,0.846-1.274c0.409-0.609,0.992-1.277,2.042-1.277c1.108,0,1.75,0.872,1.75,2.176    c0,1.072-0.409,1.886-1.371,1.886c-0.788,0-1.05-0.523-1.138-1.131c-0.058-0.464-0.117-0.957-0.467-0.957    c-0.524,0-0.904,0.551-1.167,1.218c-0.262,0.696-0.408,1.363-0.408,1.856v5.973c0,1.276,0.117,1.624,1.05,1.77    c0.758,0.146,1.05,0.202,1.05,0.464c0,0.29-0.204,0.349-0.7,0.349c-0.321,0-0.73-0.117-2.597-0.117    c-1.488,0-1.896,0.117-2.217,0.117c-0.379,0-0.613-0.088-0.613-0.349c0-0.29,0.263-0.348,0.729-0.464    c0.7-0.087,0.846-0.232,0.846-1.363L97.412,22.644L97.412,22.644z"/>
		<path fill="#21659E" d="M114.562,30.357c0,0.782,0.088,0.986,0.263,0.986c0.671,0,0.788-1.276,1.138-1.276    c0.204,0,0.264,0.202,0.264,0.638c0,0.609-0.06,0.928-0.468,1.16c-0.175,0.116-0.671,0.29-1.079,0.464    c-0.699,0.29-1.459,0.609-1.75,0.609c-0.263,0-0.38-0.203-0.438-0.552c-0.116-0.725-0.146-0.986-0.32-0.986    c-0.146,0-0.38,0.349-0.847,0.755c-0.438,0.376-1.108,0.783-2.102,0.783c-2.917,0-4.404-2.698-4.404-6.728    c0-3.8,2.013-7.136,4.9-7.136c0.818,0,1.4,0.261,1.752,0.493c0.262,0.175,0.438,0.32,0.523,0.32c0.117,0,0.146-0.059,0.146-0.174    v-4.728c0-0.551-0.176-0.725-0.817-0.84c-0.524-0.117-0.671-0.146-0.671-0.407c0-0.26,0.117-0.318,0.584-0.435    c1.107-0.376,1.867-0.667,2.392-0.899c0.496-0.173,0.644-0.291,0.788-0.291c0.116,0,0.146,0.146,0.146,0.522V30.357    L114.562,30.357z M107.474,25.747c0,3.974,0.935,5.712,2.684,5.712c0.467,0,0.963-0.115,1.343-0.406    c0.379-0.29,0.642-0.695,0.642-1.306v-7.219c0-0.726-0.203-1.336-0.555-1.8c-0.35-0.435-0.846-0.695-1.459-0.695    c-1.107,0-2.654,1.335-2.654,5.685L107.474,25.747L107.474,25.747z"/>
		<path fill="#21659E" d="M133.666,27.428c0,3.479-2.626,5.597-6.038,5.597c-1.487,0-3.149-0.318-3.705-0.84    c-0.321-0.319-0.438-0.87-0.467-2.494c0-0.812-0.029-1.915,0.089-2.495c0.086-0.288,0.174-0.348,0.378-0.348    c0.351,0,0.408,0.174,0.526,0.464c0.729,3.104,1.777,4.873,3.675,4.873c1.778,0,3.005-1.566,3.005-3.51    c0-2.088-1.4-3.307-3.005-4.378c-0.408-0.262-0.815-0.553-1.226-0.841c-1.691-1.16-3.297-2.496-3.297-4.989    c0-2.611,2.51-4.523,5.311-4.523c1.342,0,2.888,0.435,3.354,0.782c0.233,0.146,0.264,0.232,0.293,0.928v1.915    c0,1.421,0,1.595-0.379,1.595c-0.439,0-0.41-0.493-0.613-1.102c-0.672-2.262-1.604-3.277-2.946-3.277    c-1.312,0-2.451,1.102-2.451,2.523c0,2.493,1.983,3.596,3.938,4.843c1.81,1.189,3.559,2.493,3.559,5.25V27.428L133.666,27.428z"/>
		<path fill="#21659E" d="M137.632,36.883c0,0.957,0.408,1.16,1.312,1.334c0.496,0.087,0.672,0.114,0.672,0.464    c0,0.173-0.204,0.319-0.787,0.319c-0.613,0-1.051-0.116-2.247-0.116c-1.079,0-1.867,0.116-2.42,0.116    c-0.526,0-0.671-0.116-0.671-0.349c0-0.203,0.029-0.348,0.438-0.435c1.107-0.262,1.254-0.291,1.254-1.51V22.644    c0-0.784-0.115-0.929-0.643-1.102c-0.582-0.174-0.786-0.232-0.786-0.406c0-0.261,0.146-0.349,0.612-0.493    c1.049-0.464,1.837-0.899,2.333-1.189c0.379-0.232,0.526-0.378,0.642-0.378c0.118,0,0.204,0.088,0.204,0.407v1.131    c0,0.203,0.06,0.29,0.177,0.29c0.146,0,0.407-0.319,0.786-0.668c0.496-0.464,1.196-1.014,2.071-1.014    c2.538,0,4.377,2.899,4.377,6.93c0,3.654-1.896,6.787-4.814,6.787c-0.699,0-1.226-0.203-1.634-0.349    c-0.319-0.145-0.524-0.261-0.671-0.261c-0.204,0-0.204,0.202-0.204,0.551V36.883z M142.3,26.182c0-3.395-0.903-5.453-2.567-5.453    c-0.555,0-1.078,0.231-1.459,0.581c-0.407,0.317-0.642,0.781-0.642,1.274v7.31c0,0.84,0.204,1.421,0.556,1.739    c0.35,0.349,0.815,0.522,1.312,0.522c1.546,0,2.801-1.683,2.801-5.944L142.3,26.182L142.3,26.182z"/>
		<path fill="#21659E" d="M148.831,25.485c-0.522,0-0.728,0.203-0.728,0.666c0,2.987,1.281,5.308,3.295,5.308    c1.343,0,2.129-0.667,2.539-1.653c0.232-0.522,0.291-0.898,0.523-0.898c0.176,0,0.292,0.088,0.292,0.405    c0,0.435-0.146,0.957-0.407,1.45c-0.584,1.248-1.927,2.176-3.59,2.176c-3.297,0-5.279-2.784-5.279-6.642    c0-4.784,2.449-7.222,5.25-7.222c2.334,0,4.026,1.741,4.026,4.669c0,1.624-0.028,1.741-0.846,1.741H148.831L148.831,25.485z     M148.16,23.891c0,0.55,0.088,0.696,1.109,0.696c0.554,0,1.021-0.059,1.429-0.117c0.876-0.115,1.459-0.347,1.604-0.579    c0.233-0.231,0.32-0.551,0.32-1.218c0-1.713-0.787-2.755-1.926-2.755c-1.487,0-2.538,1.915-2.538,3.944L148.16,23.891    L148.16,23.891z"/>
		<path fill="#21659E" d="M155.895,26.472c0-4.292,2.537-7.396,5.949-7.396c0.76,0,1.663,0.117,2.274,0.464    c0.7,0.378,0.729,0.494,0.729,1.248c0,0.435,0.028,0.755,0.028,1.101c0,0.292-0.06,0.756-0.088,1.017    c-0.086,0.579-0.29,0.667-0.7,0.667c-0.494,0-0.582-0.696-1.049-1.944c-0.379-1.014-0.729-1.507-1.575-1.507    c-1.634,0-2.946,2.176-2.946,5.277c0,4.293,1.459,5.946,3.209,5.946c1.051,0,1.75-0.437,2.306-1.306    c0.379-0.638,0.612-1.422,0.845-1.422c0.204,0,0.322,0.176,0.322,0.408c0,1.564-1.4,3.914-4.26,3.914    c-3.123,0-5.047-2.61-5.047-6.439v-0.028H155.895z"/>
		<path fill="#21659E" d="M169.369,30.067c0,1.072,0.349,1.305,0.902,1.305c0.526,0,0.847-0.406,1.08-0.783    c0.232-0.377,0.381-0.754,0.644-0.754c0.174,0,0.29,0.087,0.29,0.29c0,0.377-0.583,2.784-2.916,2.784    c-0.789,0-1.4-0.203-1.809-0.638c-0.438-0.436-0.645-1.132-0.645-2.06v-9.309c0-0.261-0.145-0.377-0.318-0.437    c-0.176-0.027-0.468-0.027-0.672-0.027c-0.263-0.029-0.467-0.058-0.467-0.377c0-0.174,0.175-0.377,0.553-0.755    c0.818-0.723,1.489-1.507,2.512-3.248c0.289-0.521,0.349-0.696,0.553-0.696c0.175,0,0.293,0.059,0.293,0.64v2.813    c0,0.464,0.145,0.638,0.582,0.638h1.314c0.495,0,0.641,0.086,0.641,0.493c0,0.435-0.115,0.609-0.7,0.609h-1.37    c-0.352,0-0.467,0.116-0.467,0.58V30.067L169.369,30.067z"/>
		<path fill="#21659E" d="M174.328,22.644c0-0.957-0.29-1.16-1.049-1.16c-0.233-0.029-0.381-0.089-0.381-0.32    c0-0.288,0.177-0.376,0.613-0.491c0.582-0.205,1.312-0.437,2.012-1.016c0.381-0.376,0.557-0.581,0.789-0.581    c0.115,0,0.233,0.146,0.233,0.437c0.029,0.376,0.029,0.87,0.029,1.448c0,0.379,0,0.667,0.114,0.667    c0.264,0,0.408-0.607,0.849-1.274c0.407-0.609,0.989-1.277,2.042-1.277c1.107,0,1.749,0.872,1.749,2.176    c0,1.072-0.408,1.886-1.371,1.886c-0.786,0-1.049-0.523-1.138-1.131c-0.059-0.464-0.115-0.957-0.467-0.957    c-0.525,0-0.903,0.551-1.168,1.218c-0.263,0.696-0.406,1.363-0.406,1.856v5.973c0,1.276,0.115,1.624,1.049,1.77    c0.759,0.146,1.052,0.202,1.052,0.464c0,0.29-0.204,0.349-0.7,0.349c-0.322,0-0.729-0.117-2.597-0.117    c-1.489,0-1.896,0.117-2.219,0.117c-0.378,0-0.611-0.088-0.611-0.349c0-0.29,0.263-0.348,0.729-0.464    c0.699-0.087,0.845-0.232,0.845-1.363L174.328,22.644L174.328,22.644z"/>
		<path fill="#21659E" d="M185.441,29.139c0,1.45,0.847,2.176,2.16,2.176c0.787,0,1.604-0.349,2.129-0.928    c0.351-0.407,0.584-0.898,0.584-1.422v-7.626c0-0.783-0.088-1.016-0.76-1.131c-0.671-0.088-0.875-0.059-0.875-0.464    c0-0.232,0.204-0.407,0.584-0.407c0.408,0,0.904,0.059,1.399,0.059c0.524,0,1.021-0.059,1.604-0.059    c0.291,0,0.494,0.088,0.494,0.667v1.104v8.614c0,0.955,0.206,1.216,0.729,1.274c0.556,0.058,0.7,0.145,0.7,0.377    c-0.029,0.231-0.174,0.319-0.815,0.551c-1.226,0.436-2.015,0.755-2.422,0.929c-0.175,0.058-0.263,0.087-0.379,0.087    c-0.089,0-0.146-0.116-0.146-0.349v-1.334c0-0.319-0.088-0.375-0.205-0.375c-0.115,0-0.232,0.085-0.408,0.231    c-0.611,0.521-1.662,1.651-3.412,1.651c-0.903,0-1.78-0.203-2.394-0.725c-0.584-0.521-1.021-1.306-1.021-2.465v-8.497    c0-0.58-0.233-0.783-0.815-0.842c-0.526-0.057-0.7-0.173-0.7-0.464c0-0.203,0.174-0.435,0.553-0.435    c0.556,0,1.111,0.059,1.664,0.059c0.381,0,0.963-0.059,1.283-0.059c0.408,0,0.467,0.291,0.467,1.045V29.139L185.441,29.139z"/>
		<path fill="#21659E" d="M196.059,22.382c0-0.84-0.115-0.958-0.845-1.014c-0.409-0.059-0.644-0.059-0.644-0.349    c0-0.232,0.263-0.32,0.934-0.553c1.051-0.404,1.723-0.811,2.102-1.101c0.291-0.173,0.41-0.291,0.524-0.291    c0.147,0,0.204,0.232,0.204,0.493v0.898c0,0.696,0.029,0.755,0.178,0.755c0.232,0,0.699-0.493,1.312-0.986    c0.642-0.492,1.43-0.985,2.334-0.985c1.954,0,2.448,1.189,2.771,1.74c0.117,0.173,0.176,0.261,0.293,0.261    c0.086,0,0.174-0.088,0.318-0.202c0.645-0.522,1.811-1.798,3.619-1.798c0.814,0,1.634,0.261,2.216,0.752    c0.644,0.523,1.051,1.336,1.051,2.408v8.265c0,0.812,0.233,1.044,0.875,1.218c0.468,0.146,0.671,0.232,0.671,0.406    c0,0.261-0.146,0.378-0.496,0.378c-0.582,0-1.428-0.117-2.391-0.117c-0.934,0-1.723,0.117-2.305,0.117    c-0.264,0-0.525-0.059-0.525-0.349c0-0.174,0.232-0.318,0.496-0.377c0.934-0.232,1.282-0.377,1.282-1.565v-7.221    c0-1.566-0.815-2.35-2.216-2.35c-0.614,0-1.227,0.174-1.664,0.552c-0.438,0.376-0.699,0.898-0.699,1.536v8.003    c0,0.726,0.115,0.842,1.02,1.016c0.322,0.059,0.467,0.145,0.467,0.349c0,0.318-0.26,0.406-0.61,0.406    c-0.408,0-1.108-0.117-2.101-0.117c-0.935,0-1.635,0.117-2.16,0.117c-0.407,0-0.523-0.117-0.523-0.349    c0-0.145,0.116-0.348,0.35-0.406c0.935-0.203,1.139-0.261,1.139-1.45v-7.075c0-0.754-0.116-1.334-0.379-1.771    c-0.293-0.55-0.817-0.811-1.518-0.811c-0.701,0-1.371,0.261-1.867,0.696c-0.496,0.464-0.816,1.071-0.816,1.738v7.686    c0,0.609,0.204,0.842,0.816,0.986c0.496,0.145,0.612,0.145,0.612,0.406c0,0.261-0.233,0.349-0.495,0.349    c-0.234,0-0.556-0.117-2.423-0.117c-1.312,0-1.545,0.117-1.896,0.117c-0.438,0-0.553-0.174-0.553-0.406    c0-0.204,0.174-0.349,0.467-0.406c0.904-0.116,1.078-0.377,1.078-1.422v-8.06H196.059z"/>
	</g>
</g>
<g>
	<g>
		<path fill="#999999" d="M3.511,40.94c0-0.191-0.048-0.239-0.655-0.239c-0.752,0-1.104,0.7-1.36,1.321    c-0.192,0.491-0.32,0.954-0.512,0.954c-0.16,0-0.208-0.081-0.208-0.382c0-0.064,0.016-0.206,0.032-0.398    c0.048-0.508,0.144-1.255,0.256-1.827c0.08-0.398,0.16-0.637,0.288-0.637c0.176,0,0.224,0.128,0.288,0.271    c0.064,0.127,0.144,0.255,0.368,0.255h4.479c0.512,0,0.688-0.097,0.784-0.255c0.08-0.112,0.144-0.271,0.32-0.271    c0.16,0,0.208,0.144,0.208,0.462c0,0.19-0.016,0.382-0.016,0.572c0,0.446-0.048,1.145-0.08,1.589    c-0.048,0.493-0.144,0.637-0.288,0.637c-0.224,0-0.272-0.462-0.368-0.955c-0.16-0.65-0.4-1.288-1.215-1.319    c-0.192,0-0.368-0.017-0.496-0.017c-0.304,0-0.352,0.081-0.352,0.223v8.109c0,0.477,0.176,0.7,0.4,0.731    c0.432,0.08,0.735,0.095,0.735,0.287c0,0.207-0.191,0.223-0.384,0.223c-0.272,0-0.576-0.064-1.471-0.064    c-1.087,0-1.296,0.064-1.536,0.064c-0.256,0-0.352-0.064-0.352-0.208c0-0.159,0.063-0.237,0.607-0.301    c0.448-0.048,0.528-0.271,0.528-0.826V40.94z"/>
		<path fill="#999999" d="M9.247,40.575c0-0.303-0.08-0.398-0.432-0.462c-0.288-0.064-0.384-0.079-0.384-0.223    c0-0.159,0.112-0.174,0.448-0.271c0.671-0.221,1.023-0.38,1.247-0.477C10.335,39.047,10.399,39,10.495,39    c0.064,0,0.096,0.064,0.096,0.287v4.53c0,0.095,0.032,0.142,0.096,0.142s0.128-0.047,0.191-0.095    c0.352-0.317,0.96-0.954,1.872-0.954c1.008,0,1.807,0.652,1.855,1.907v4.357c0,0.46,0.176,0.636,0.496,0.683    c0.272,0.047,0.368,0.097,0.368,0.223c0,0.142-0.112,0.191-0.24,0.191c-0.08,0-0.512-0.064-1.264-0.064    c-0.848,0-1.023,0.064-1.199,0.064c-0.192,0-0.288-0.049-0.288-0.208c0-0.126,0.095-0.159,0.256-0.19    c0.367-0.08,0.527-0.189,0.527-0.541v-4.34c0-0.381-0.096-0.683-0.271-0.89c-0.208-0.254-0.512-0.382-0.912-0.382    c-0.368,0-0.751,0.159-1.04,0.397c-0.271,0.239-0.448,0.557-0.448,0.907v4.229c0,0.349,0.176,0.524,0.624,0.619    c0.24,0.048,0.288,0.095,0.288,0.207c0,0.142-0.112,0.191-0.24,0.191c-0.128,0-0.288-0.064-1.392-0.064    c-0.832,0-0.975,0.064-1.216,0.064c-0.127,0-0.24-0.064-0.24-0.208c0-0.126,0.112-0.207,0.256-0.237    c0.48-0.048,0.576-0.207,0.576-0.78L9.247,40.575L9.247,40.575z"/>
		<path fill="#999999" d="M17.637,46.329c-0.288,0-0.4,0.111-0.4,0.365c0,1.639,0.704,2.91,1.808,2.91    c0.735,0,1.167-0.365,1.392-0.906c0.127-0.287,0.16-0.493,0.288-0.493c0.096,0,0.16,0.047,0.16,0.223    c0,0.239-0.081,0.524-0.224,0.794c-0.32,0.683-1.055,1.193-1.967,1.193c-1.807,0-2.895-1.527-2.895-3.641    c0-2.624,1.343-3.959,2.878-3.959c1.279,0,2.208,0.954,2.208,2.56c0,0.89-0.016,0.954-0.464,0.954H17.637z M17.269,45.456    c0,0.302,0.048,0.38,0.608,0.38c0.304,0,0.56-0.031,0.784-0.062c0.479-0.063,0.799-0.191,0.879-0.318    c0.128-0.127,0.176-0.303,0.176-0.668c0-0.937-0.432-1.51-1.055-1.51c-0.816,0-1.392,1.05-1.392,2.163V45.456z"/>
		<path fill="#999999" d="M31.76,49.415c0,0.095-0.032,0.19-0.08,0.271c-0.064,0.126-0.192,0.221-0.368,0.318    c-0.464,0.285-1.248,0.46-2.079,0.46c-2.287,0-4.078-1.955-4.078-5.023c0-3.37,2.031-5.438,4.302-5.438    c0.944,0,1.583,0.144,1.967,0.398c0.16,0.064,0.208,0.223,0.224,0.906v1.145c-0.032,0.46-0.08,0.508-0.24,0.508    c-0.16,0-0.256-0.19-0.448-0.7c-0.432-1.096-0.768-1.812-1.615-1.812c-1.359,0-2.479,1.957-2.479,4.77    c0,3.259,1.024,4.801,2.463,4.801c0.432,0,0.72-0.112,0.864-0.444c0.08-0.192,0.112-0.415,0.112-0.747v-2.035    c0-0.844-0.176-0.875-0.543-0.939c-0.384-0.047-0.544-0.064-0.544-0.287c0-0.095,0.112-0.19,0.352-0.19    c0.368,0.017,0.768,0.064,1.439,0.064c0.704,0,1.024-0.064,1.264-0.064c0.256,0,0.336,0.064,0.336,0.19    c0,0.239-0.144,0.176-0.496,0.287c-0.24,0.081-0.352,0.143-0.352,0.716L31.76,49.415L31.76,49.415z"/>
		<path fill="#999999" d="M33.907,44.771c0-0.524-0.16-0.636-0.576-0.636c-0.128-0.016-0.208-0.047-0.208-0.175    c0-0.159,0.096-0.206,0.336-0.27c0.32-0.11,0.72-0.237,1.104-0.555c0.208-0.207,0.304-0.318,0.432-0.318    c0.064,0,0.128,0.079,0.128,0.238c0.016,0.207,0.016,0.477,0.016,0.796c0,0.207,0,0.365,0.064,0.365    c0.144,0,0.224-0.334,0.463-0.699c0.224-0.334,0.544-0.7,1.12-0.7c0.608,0,0.959,0.477,0.959,1.193    c0,0.588-0.224,1.032-0.751,1.032c-0.432,0-0.576-0.285-0.624-0.619c-0.032-0.254-0.063-0.524-0.256-0.524    c-0.288,0-0.496,0.302-0.639,0.667c-0.145,0.381-0.225,0.747-0.225,1.018v3.275c0,0.7,0.064,0.89,0.576,0.97    c0.417,0.078,0.576,0.111,0.576,0.254c0,0.159-0.112,0.191-0.384,0.191c-0.176,0-0.4-0.064-1.423-0.064    c-0.816,0-1.04,0.064-1.216,0.064c-0.208,0-0.336-0.049-0.336-0.191c0-0.159,0.144-0.19,0.4-0.254    c0.384-0.048,0.464-0.128,0.464-0.748V44.771z"/>
		<path fill="#999999" d="M39.918,46.329c-0.288,0-0.4,0.111-0.4,0.365c0,1.639,0.704,2.91,1.808,2.91    c0.735,0,1.167-0.365,1.392-0.906c0.127-0.287,0.16-0.493,0.288-0.493c0.096,0,0.16,0.047,0.16,0.223    c0,0.239-0.081,0.524-0.224,0.794c-0.32,0.683-1.055,1.193-1.967,1.193c-1.807,0-2.895-1.527-2.895-3.641    c0-2.624,1.343-3.959,2.878-3.959c1.28,0,2.208,0.954,2.208,2.56c0,0.89-0.016,0.954-0.464,0.954H39.918z M39.55,45.456    c0,0.302,0.048,0.38,0.608,0.38c0.304,0,0.56-0.031,0.784-0.062c0.479-0.063,0.799-0.191,0.879-0.318    c0.128-0.127,0.176-0.303,0.176-0.668c0-0.937-0.432-1.51-1.055-1.51c-0.816,0-1.392,1.05-1.392,2.163V45.456z"/>
		<path fill="#999999" d="M47.615,44.247c0-0.747-0.208-0.986-0.624-0.986c-0.736,0-1.088,0.59-1.312,1.368    c-0.112,0.349-0.304,0.619-0.528,0.795c-0.192,0.142-0.399,0.223-0.639,0.223c-0.32,0-0.448-0.112-0.448-0.43    c0-0.938,1.359-2.4,3.311-2.4c0.608,0,0.992,0.079,1.232,0.285c0.256,0.192,0.352,0.51,0.352,0.939v4.77    c0,0.396,0.144,0.572,0.416,0.572c0.288,0,0.416-0.142,0.479-0.301c0.08-0.159,0.112-0.318,0.224-0.318    c0.096,0,0.128,0.079,0.128,0.271c0,0.349-0.448,1.335-1.424,1.335c-0.687,0-0.863-0.541-0.975-0.858    c-0.048-0.128-0.096-0.223-0.176-0.223c-0.127,0-0.368,0.302-0.751,0.588c-0.352,0.287-0.832,0.541-1.471,0.541    c-0.736,0-1.28-0.51-1.28-1.447c0-0.794,0.432-1.352,1.775-2.227c0.544-0.349,0.912-0.572,1.167-0.762    c0.416-0.256,0.544-0.415,0.544-0.764V44.247z M45.536,48.715c0,0.588,0.304,0.89,0.751,0.89c0.336,0,0.624-0.19,0.928-0.477    c0.288-0.287,0.4-0.493,0.4-0.89v-1.764c0-0.176-0.032-0.208-0.112-0.208c-0.081,0-0.16,0.017-0.368,0.175    c-0.336,0.223-0.655,0.493-0.896,0.764c-0.432,0.445-0.704,0.937-0.704,1.495L45.536,48.715L45.536,48.715z"/>
		<path fill="#999999" d="M52.456,48.841c0,0.588,0.192,0.716,0.496,0.716c0.288,0,0.464-0.223,0.592-0.43    c0.128-0.206,0.208-0.413,0.352-0.413c0.096,0,0.16,0.047,0.16,0.159c0,0.207-0.32,1.526-1.599,1.526    c-0.432,0-0.768-0.112-0.992-0.349c-0.24-0.239-0.352-0.621-0.352-1.129v-5.104c0-0.143-0.08-0.207-0.176-0.238    c-0.096-0.017-0.256-0.017-0.368-0.017c-0.144-0.016-0.256-0.032-0.256-0.206c0-0.097,0.096-0.207,0.304-0.415    c0.448-0.396,0.816-0.826,1.375-1.779c0.16-0.287,0.192-0.382,0.304-0.382c0.096,0,0.16,0.031,0.16,0.349v1.542    c0,0.256,0.08,0.351,0.319,0.351h0.72c0.272,0,0.352,0.047,0.352,0.271c0,0.238-0.064,0.334-0.384,0.334h-0.751    c-0.192,0-0.256,0.062-0.256,0.318V48.841L52.456,48.841z"/>
		<path fill="#999999" d="M56.243,46.329c-0.288,0-0.4,0.111-0.4,0.365c0,1.639,0.704,2.91,1.807,2.91    c0.736,0,1.167-0.365,1.392-0.906c0.128-0.287,0.16-0.493,0.288-0.493c0.096,0,0.16,0.047,0.16,0.223    c0,0.239-0.08,0.524-0.224,0.794c-0.32,0.683-1.055,1.193-1.967,1.193c-1.807,0-2.895-1.527-2.895-3.641    c0-2.624,1.343-3.959,2.879-3.959c1.279,0,2.207,0.954,2.207,2.56c0,0.89-0.016,0.954-0.464,0.954H56.243z M55.875,45.456    c0,0.302,0.047,0.38,0.607,0.38c0.304,0,0.56-0.031,0.784-0.062c0.479-0.063,0.799-0.191,0.879-0.318    c0.128-0.127,0.176-0.303,0.176-0.668c0-0.937-0.432-1.51-1.055-1.51c-0.816,0-1.392,1.05-1.392,2.163L55.875,45.456    L55.875,45.456z"/>
		<path fill="#999999" d="M61.005,44.771c0-0.524-0.16-0.636-0.576-0.636c-0.128-0.016-0.208-0.047-0.208-0.175    c0-0.159,0.096-0.206,0.336-0.27c0.32-0.11,0.72-0.237,1.104-0.555c0.208-0.207,0.304-0.318,0.432-0.318    c0.063,0,0.128,0.079,0.128,0.238c0.016,0.207,0.016,0.477,0.016,0.796c0,0.207,0,0.365,0.064,0.365    c0.144,0,0.224-0.334,0.463-0.699c0.224-0.334,0.544-0.7,1.12-0.7c0.608,0,0.96,0.477,0.96,1.193c0,0.588-0.224,1.032-0.752,1.032    c-0.432,0-0.576-0.285-0.624-0.619c-0.032-0.254-0.064-0.524-0.256-0.524c-0.288,0-0.496,0.302-0.64,0.667    c-0.145,0.381-0.224,0.747-0.224,1.018v3.275c0,0.7,0.063,0.89,0.576,0.97c0.416,0.078,0.576,0.111,0.576,0.254    c0,0.159-0.112,0.191-0.384,0.191c-0.176,0-0.4-0.064-1.423-0.064c-0.816,0-1.04,0.064-1.216,0.064    c-0.208,0-0.335-0.049-0.335-0.191c0-0.159,0.144-0.19,0.399-0.254c0.384-0.048,0.464-0.128,0.464-0.748V44.771z"/>
	</g>
	<g>
		<path fill="#999999" d="M1.838,55.553c0-0.899-0.175-1.275-0.7-1.363c-0.671-0.115-0.934-0.115-0.934-0.493    c0-0.376,0.438-0.406,0.729-0.406c0.438,0,1.021,0.059,1.517,0.059c0.496,0,1.138-0.059,1.576-0.059s0.496,0.261,0.962,1.189    c1.138,2.261,4.463,8.555,5.922,11.195c0.438,0.753,0.496,0.781,0.554,0.781c0.117,0,0.146-0.114,0.146-0.347V56.104    c0-1.421-0.321-1.826-0.904-1.914c-0.642-0.086-1.021-0.203-1.021-0.493c0-0.232,0.175-0.406,0.409-0.406    c0.321,0,0.788,0.117,2.013,0.117c0.671,0,1.226-0.117,1.722-0.117c0.379,0,0.496,0.088,0.496,0.376    c0,0.378-0.35,0.437-1.021,0.522c-0.583,0.117-0.788,0.522-0.788,1.392v15.834c0,0.696,0,0.755-0.583,0.755    c-0.438,0-0.496-0.117-1.138-1.363c-0.175-0.349-0.35-0.695-0.554-1.016c-2.188-4.146-4.493-8.236-6.623-12.439    c-0.292-0.611-0.467-0.957-0.642-0.957c-0.146,0-0.204,0.085-0.204,0.52v10.499c0,2.406,0.204,3.219,0.846,3.363    c0.729,0.175,1.43,0.059,1.43,0.58c0,0.262-0.175,0.319-0.496,0.319c-0.35,0-0.525-0.116-1.984-0.116    c-1.341,0-1.779,0.116-2.217,0.116c-0.262,0-0.379-0.116-0.379-0.291c0-0.405,0.875-0.464,1.225-0.608    c0.554-0.202,0.642-0.695,0.642-1.508L1.838,55.553L1.838,55.553z"/>
		<path fill="#999999" d="M18.163,64.484c-0.525,0-0.729,0.203-0.729,0.666c0,2.988,1.284,5.309,3.296,5.309    c1.342,0,2.129-0.667,2.538-1.652c0.233-0.522,0.292-0.898,0.525-0.898c0.175,0,0.292,0.088,0.292,0.404    c0,0.436-0.146,0.957-0.409,1.451c-0.583,1.247-1.925,2.176-3.588,2.176c-3.296,0-5.28-2.785-5.28-6.643    c0-4.783,2.451-7.222,5.251-7.222c2.334,0,4.026,1.741,4.026,4.669c0,1.624-0.029,1.74-0.846,1.74H18.163z M17.492,62.891    c0,0.551,0.087,0.696,1.109,0.696c0.554,0,1.021-0.06,1.429-0.116c0.875-0.115,1.458-0.348,1.604-0.58    c0.233-0.23,0.321-0.551,0.321-1.218c0-1.713-0.787-2.756-1.925-2.756c-1.488,0-2.538,1.915-2.538,3.944V62.891z"/>
		<path fill="#999999" d="M30.603,71.011c-0.146,0.464-0.262,0.812-0.933,0.812c-0.583,0-0.642-0.378-0.759-0.783l-3.354-10.615    c-0.292-0.897-0.526-1.159-0.846-1.245c-0.35-0.059-0.496-0.203-0.496-0.436c0-0.261,0.146-0.406,0.496-0.406    c0.67,0,1.284,0.117,1.925,0.117c0.641,0,1.284-0.117,1.896-0.117c0.379,0,0.583,0.088,0.583,0.377    c0,0.232-0.321,0.319-0.612,0.377c-0.321,0.088-0.642,0.262-0.642,0.784c0,0.261,0.03,0.521,0.292,1.274l1.984,5.947    c0.117,0.403,0.233,0.637,0.35,0.637c0.175,0,0.321-0.319,0.467-0.784l1.167-3.771c0.117-0.375,0.205-0.666,0.205-0.898    c0-0.317-0.205-0.898-0.671-2.145c-0.175-0.522-0.525-0.843-0.875-0.929c-0.321-0.117-0.613-0.175-0.613-0.437    c0-0.26,0.205-0.435,0.583-0.435c0.671,0,1.371,0.117,2.013,0.117c0.7,0,1.43-0.117,1.954-0.117c0.526,0,0.613,0.146,0.613,0.406    c0,0.29-0.32,0.348-0.642,0.406c-0.35,0.059-0.671,0.203-0.671,0.638c0,0.173,0.088,0.667,0.205,1.071L36,66.893    c0.117,0.406,0.233,0.812,0.409,0.812c0.146,0,0.292-0.606,0.438-1.101l1.604-5.656c0.117-0.405,0.146-0.87,0.146-0.957    c0-0.58-0.409-0.727-0.817-0.782c-0.408-0.06-0.846-0.117-0.846-0.437c0-0.231,0.175-0.435,0.467-0.435    c0.467,0,0.963,0.117,1.517,0.117c0.642,0,1.167-0.117,1.517-0.117c0.263,0,0.438,0.117,0.438,0.406    c0,0.348-0.233,0.377-0.496,0.492c-0.292,0.088-0.613,0.291-0.817,0.899l-3.122,10.875c-0.146,0.464-0.205,0.812-0.788,0.812    c-0.641,0-0.758-0.377-0.875-0.782l-1.984-6.845h-0.059L30.603,71.011z"/>
		<path fill="#999999" d="M57.858,71.271c0-0.319,0.321-0.406,1.08-0.522c0.816-0.087,1.183-0.405,1.183-1.74    c0-3.046-0.262-8.989-0.379-12.006c-0.029-0.435-0.058-0.579-0.146-0.579c-0.117,0-0.146,0.145-0.233,0.376    c-0.292,0.784-0.963,3.249-3.268,10.935c-0.963,3.188-0.846,3.826-1.43,3.826c-0.292,0-0.408-0.23-0.729-1.623    c-0.817-3.422-3.18-11.396-3.675-13.167c-0.059-0.231-0.117-0.347-0.263-0.347s-0.146,0.232-0.204,0.638    c-0.205,2.465-0.033,7.104-0.033,9.598c0,1.943-0.146,3.916,0.729,4.09c0.525,0.116,1.371,0.116,1.371,0.521    c0,0.232-0.146,0.406-0.554,0.406c-0.525,0-0.875-0.117-2.042-0.117c-1.05,0-1.517,0.117-1.867,0.117    c-0.262,0-0.467-0.029-0.467-0.406c0-0.405,0.467-0.377,0.963-0.492c0.7-0.203,0.816-0.871,0.904-2.264    c0.146-2.869,0.179-9.858,0.179-12.268c0-1.594,0-1.912-0.875-2.058c-0.525-0.086-1.021-0.145-1.021-0.464    c0-0.405,0.409-0.435,0.729-0.435c0.642,0,1.429,0.088,2.071,0.088c0.467,0,1.196-0.088,1.604-0.088    c0.35,0,0.438,0.029,0.583,0.464c1.021,3.539,2.013,7.104,3.034,10.644c0.233,0.869,0.321,1.449,0.555,1.449    c0.204,0,0.292-0.261,0.525-1.101c1.021-3.539,2.042-7.077,3.092-10.586c0.146-0.638,0.321-0.87,0.612-0.87    c0.409,0,1.138,0.088,1.663,0.088c0.583,0,1.459-0.088,2.013-0.088c0.263,0,0.525,0.117,0.525,0.406    c0,0.319-0.35,0.435-1.196,0.521c-0.379,0.029-0.583,0.435-0.583,1.624c0,2.64,0.1,10.064,0.188,13.544    c0.029,0.869,0.263,1.275,0.671,1.362c0.817,0.203,1.138,0.231,1.138,0.551s-0.263,0.378-0.671,0.378    c-0.496,0-1.138-0.117-2.509-0.117c-1.138,0-2.071,0.117-2.567,0.117c-0.437,0-0.7-0.117-0.7-0.378V71.271z"/>
		<path fill="#999999" d="M66.74,61.382c0-0.755-0.205-0.958-1.08-1.159c-0.292-0.06-0.409-0.174-0.409-0.348    c0-0.232,0.233-0.35,0.934-0.581c0.934-0.291,1.634-0.667,2.217-0.928c0.262-0.174,0.467-0.291,0.554-0.291    c0.175,0,0.233,0.117,0.233,0.437v1.392v9.513c0,0.869,0.029,1.246,0.992,1.449c0.525,0.146,0.7,0.202,0.7,0.464    c0,0.23-0.117,0.35-0.496,0.35c-0.554,0-1.079-0.117-2.421-0.117c-1.4,0-1.955,0.117-2.421,0.117c-0.263,0-0.438-0.117-0.438-0.35    s0.117-0.377,0.524-0.464c0.993-0.175,1.109-0.29,1.109-1.334v-8.15H66.74z M67.965,56.336c-0.729,0-1.371-0.608-1.371-1.711    c0-1.131,0.642-1.739,1.4-1.739c0.788,0,1.43,0.608,1.43,1.739c0,1.104-0.642,1.711-1.43,1.711H67.965z"/>
		<path fill="#999999" d="M73.553,53.987c0-0.551-0.146-0.725-0.788-0.84C72.24,53.03,72.094,53,72.094,52.739    c0-0.232,0.117-0.318,0.525-0.435c1.167-0.376,1.955-0.667,2.479-0.899c0.408-0.203,0.555-0.291,0.7-0.291    c0.175,0,0.205,0.175,0.205,0.581V69.85c0,0.725,0.291,0.781,1.196,1.015c0.321,0.087,0.583,0.146,0.583,0.435    c0,0.23-0.205,0.378-0.438,0.378c-0.292,0-0.612-0.116-2.538-0.116c-1.78,0-2.101,0.116-2.421,0.116    c-0.205,0-0.467-0.088-0.467-0.378c0-0.232,0.262-0.377,0.496-0.435c0.992-0.146,1.138-0.437,1.138-1.189V53.987H73.553z"/>
		<path fill="#999999" d="M82.158,69.186c0,1.215,0.291,1.506,1.284,1.681c0.437,0.087,0.787,0.146,0.787,0.464    c0,0.23-0.146,0.35-0.583,0.35c-0.642,0-1.604-0.117-2.654-0.117c-0.992,0-1.78,0.117-2.247,0.117    c-0.613,0-0.758-0.117-0.758-0.35c0-0.262,0.146-0.377,0.583-0.464c0.875-0.116,1.138-0.377,1.138-1.566v-9.163    c0-0.464-0.321-0.552-0.7-0.609c-0.321-0.06-0.671-0.115-0.671-0.463c0-0.35,0.321-0.465,0.7-0.667    c0.35-0.203,0.671-0.494,0.7-1.189c0.059-2.059,0.467-3.595,1.196-4.669c0.73-1.014,1.78-1.536,3.005-1.536    c1.488,0,2.275,0.435,2.275,1.565c0,0.406-0.087,0.899-0.175,1.363c-0.117,0.522-0.379,0.957-0.759,0.957    c-0.525,0-0.758-0.725-0.963-1.421c-0.233-0.811-0.438-1.624-1.021-1.624c-0.758,0-1.196,1.104-1.196,4.408    c0,0.61,0.03,1.16,0.03,1.653c0.029,0.465,0.146,0.553,0.408,0.553h1.925c0.35,0,0.409,0.058,0.409,0.549    c0,0.465-0.029,0.553-0.379,0.553h-1.546c-0.67,0-0.787,0.174-0.787,0.754L82.158,69.186L82.158,69.186z"/>
		<path fill="#999999" d="M89.741,71.938c-3.18,0-5.338-3.162-5.338-6.931c0-3.771,2.159-6.933,5.368-6.933    c3.238,0,5.397,3.162,5.397,6.933c0,3.769-2.159,6.931-5.397,6.931H89.741z M89.858,71.126c1.838,0,2.655-2.987,2.655-5.829    c0-3.249-0.904-6.409-2.8-6.409c-1.867,0-2.684,2.987-2.684,5.83c0,3.247,0.934,6.408,2.801,6.408H89.858L89.858,71.126z"/>
		<path fill="#999999" d="M97.412,61.645c0-0.957-0.292-1.16-1.05-1.16c-0.233-0.029-0.379-0.09-0.379-0.32    c0-0.288,0.175-0.376,0.613-0.491c0.583-0.205,1.312-0.437,2.013-1.016c0.379-0.376,0.555-0.581,0.788-0.581    c0.117,0,0.233,0.146,0.233,0.437c0.029,0.376,0.029,0.87,0.029,1.448c0,0.379,0,0.667,0.117,0.667    c0.262,0,0.408-0.606,0.846-1.274c0.409-0.608,0.992-1.276,2.042-1.276c1.108,0,1.75,0.871,1.75,2.176    c0,1.072-0.409,1.886-1.371,1.886c-0.788,0-1.05-0.522-1.138-1.131c-0.058-0.464-0.117-0.957-0.467-0.957    c-0.524,0-0.904,0.551-1.167,1.219c-0.262,0.695-0.408,1.362-0.408,1.855v5.973c0,1.276,0.117,1.625,1.05,1.771    c0.758,0.146,1.05,0.202,1.05,0.464c0,0.29-0.204,0.35-0.7,0.35c-0.321,0-0.73-0.117-2.597-0.117    c-1.488,0-1.896,0.117-2.217,0.117c-0.379,0-0.613-0.089-0.613-0.35c0-0.29,0.263-0.348,0.729-0.464    c0.7-0.087,0.846-0.232,0.846-1.363L97.412,61.645L97.412,61.645z"/>
		<path fill="#999999" d="M114.562,69.357c0,0.781,0.088,0.985,0.263,0.985c0.671,0,0.788-1.276,1.138-1.276    c0.204,0,0.264,0.203,0.264,0.639c0,0.609-0.06,0.928-0.468,1.16c-0.175,0.115-0.671,0.289-1.079,0.464    c-0.699,0.29-1.459,0.608-1.75,0.608c-0.263,0-0.38-0.203-0.438-0.552c-0.116-0.725-0.146-0.985-0.32-0.985    c-0.146,0-0.38,0.349-0.847,0.754c-0.438,0.377-1.108,0.783-2.102,0.783c-2.917,0-4.404-2.697-4.404-6.728    c0-3.8,2.013-7.136,4.9-7.136c0.818,0,1.4,0.262,1.752,0.493c0.262,0.175,0.438,0.319,0.523,0.319    c0.117,0,0.146-0.059,0.146-0.174v-4.727c0-0.551-0.176-0.725-0.817-0.84c-0.524-0.117-0.671-0.146-0.671-0.407    c0-0.26,0.117-0.318,0.584-0.435c1.107-0.376,1.867-0.667,2.392-0.899c0.496-0.173,0.644-0.291,0.788-0.291    c0.116,0,0.146,0.146,0.146,0.522V69.357L114.562,69.357z M107.474,64.747c0,3.974,0.935,5.712,2.684,5.712    c0.467,0,0.963-0.115,1.343-0.406c0.379-0.289,0.642-0.695,0.642-1.306v-7.22c0-0.726-0.203-1.336-0.555-1.799    c-0.35-0.436-0.846-0.695-1.459-0.695c-1.107,0-2.654,1.335-2.654,5.685L107.474,64.747L107.474,64.747z"/>
		<path fill="#999999" d="M133.666,66.428c0,3.479-2.626,5.598-6.038,5.598c-1.487,0-3.149-0.318-3.705-0.84    c-0.321-0.319-0.438-0.871-0.467-2.494c0-0.812-0.029-1.916,0.089-2.496c0.086-0.287,0.174-0.348,0.378-0.348    c0.351,0,0.408,0.174,0.526,0.465c0.729,3.104,1.777,4.873,3.675,4.873c1.778,0,3.005-1.566,3.005-3.511    c0-2.088-1.4-3.307-3.005-4.378c-0.408-0.262-0.815-0.553-1.226-0.841c-1.691-1.16-3.297-2.496-3.297-4.988    c0-2.611,2.51-4.524,5.311-4.524c1.342,0,2.888,0.435,3.354,0.782c0.233,0.146,0.264,0.232,0.293,0.928v1.915    c0,1.421,0,1.595-0.379,1.595c-0.439,0-0.41-0.493-0.613-1.102c-0.672-2.262-1.604-3.277-2.946-3.277    c-1.312,0-2.451,1.102-2.451,2.523c0,2.492,1.983,3.596,3.938,4.842c1.81,1.189,3.559,2.494,3.559,5.25V66.428L133.666,66.428z"/>
		<path fill="#999999" d="M137.632,75.883c0,0.957,0.408,1.16,1.312,1.334c0.496,0.088,0.672,0.114,0.672,0.465    c0,0.172-0.204,0.318-0.787,0.318c-0.613,0-1.051-0.116-2.247-0.116c-1.079,0-1.867,0.116-2.42,0.116    c-0.526,0-0.671-0.116-0.671-0.35c0-0.202,0.029-0.348,0.438-0.435c1.107-0.262,1.254-0.291,1.254-1.51V61.645    c0-0.785-0.115-0.93-0.643-1.103c-0.582-0.174-0.786-0.231-0.786-0.406c0-0.261,0.146-0.349,0.612-0.493    c1.049-0.463,1.837-0.898,2.333-1.188c0.379-0.232,0.526-0.379,0.642-0.379c0.118,0,0.204,0.088,0.204,0.407v1.131    c0,0.202,0.06,0.29,0.177,0.29c0.146,0,0.407-0.319,0.786-0.668c0.496-0.464,1.196-1.014,2.071-1.014    c2.538,0,4.377,2.898,4.377,6.93c0,3.654-1.896,6.787-4.814,6.787c-0.699,0-1.226-0.203-1.634-0.35    c-0.319-0.145-0.524-0.261-0.671-0.261c-0.204,0-0.204,0.202-0.204,0.551V75.883z M142.3,65.182c0-3.395-0.903-5.453-2.567-5.453    c-0.555,0-1.078,0.231-1.459,0.582c-0.407,0.316-0.642,0.78-0.642,1.273v7.311c0,0.84,0.204,1.42,0.556,1.738    c0.35,0.35,0.815,0.521,1.312,0.521c1.546,0,2.801-1.682,2.801-5.943L142.3,65.182L142.3,65.182z"/>
		<path fill="#999999" d="M148.831,64.484c-0.522,0-0.728,0.203-0.728,0.666c0,2.988,1.281,5.309,3.295,5.309    c1.343,0,2.129-0.667,2.539-1.652c0.232-0.522,0.291-0.898,0.523-0.898c0.176,0,0.292,0.088,0.292,0.404    c0,0.436-0.146,0.957-0.407,1.451c-0.584,1.247-1.927,2.176-3.59,2.176c-3.297,0-5.279-2.785-5.279-6.643    c0-4.783,2.449-7.222,5.25-7.222c2.334,0,4.026,1.741,4.026,4.669c0,1.624-0.028,1.74-0.846,1.74H148.831z M148.16,62.891    c0,0.551,0.088,0.696,1.109,0.696c0.554,0,1.021-0.06,1.429-0.116c0.876-0.115,1.459-0.348,1.604-0.58    c0.233-0.23,0.32-0.551,0.32-1.218c0-1.713-0.787-2.756-1.926-2.756c-1.487,0-2.538,1.915-2.538,3.944L148.16,62.891    L148.16,62.891z"/>
		<path fill="#999999" d="M155.895,65.473c0-4.293,2.537-7.396,5.949-7.396c0.76,0,1.663,0.117,2.274,0.465    c0.7,0.377,0.729,0.493,0.729,1.247c0,0.435,0.028,0.755,0.028,1.101c0,0.293-0.06,0.756-0.088,1.018    c-0.086,0.578-0.29,0.667-0.7,0.667c-0.494,0-0.582-0.696-1.049-1.944c-0.379-1.014-0.729-1.507-1.575-1.507    c-1.634,0-2.946,2.176-2.946,5.276c0,4.293,1.459,5.947,3.209,5.947c1.051,0,1.75-0.438,2.306-1.307    c0.379-0.639,0.612-1.422,0.845-1.422c0.204,0,0.322,0.176,0.322,0.408c0,1.563-1.4,3.914-4.26,3.914    c-3.123,0-5.047-2.61-5.047-6.439v-0.027H155.895z"/>
		<path fill="#999999" d="M169.369,69.066c0,1.072,0.349,1.306,0.902,1.306c0.526,0,0.847-0.406,1.08-0.783    c0.232-0.377,0.381-0.754,0.644-0.754c0.174,0,0.29,0.087,0.29,0.29c0,0.377-0.583,2.784-2.916,2.784    c-0.789,0-1.4-0.203-1.809-0.638c-0.438-0.437-0.645-1.133-0.645-2.061v-9.309c0-0.262-0.145-0.377-0.318-0.438    c-0.176-0.027-0.468-0.027-0.672-0.027c-0.263-0.028-0.467-0.058-0.467-0.377c0-0.174,0.175-0.376,0.553-0.754    c0.818-0.724,1.489-1.508,2.512-3.249c0.289-0.521,0.349-0.696,0.553-0.696c0.175,0,0.293,0.059,0.293,0.64v2.812    c0,0.465,0.145,0.639,0.582,0.639h1.314c0.495,0,0.641,0.086,0.641,0.492c0,0.436-0.115,0.609-0.7,0.609h-1.37    c-0.352,0-0.467,0.116-0.467,0.58V69.066L169.369,69.066z"/>
		<path fill="#999999" d="M174.328,61.645c0-0.957-0.29-1.16-1.049-1.16c-0.233-0.029-0.381-0.09-0.381-0.32    c0-0.288,0.177-0.376,0.613-0.491c0.582-0.205,1.312-0.437,2.012-1.016c0.381-0.376,0.557-0.581,0.789-0.581    c0.115,0,0.233,0.146,0.233,0.437c0.029,0.376,0.029,0.87,0.029,1.448c0,0.379,0,0.667,0.114,0.667    c0.264,0,0.408-0.606,0.849-1.274c0.407-0.608,0.989-1.276,2.042-1.276c1.107,0,1.749,0.871,1.749,2.176    c0,1.072-0.408,1.886-1.371,1.886c-0.786,0-1.049-0.522-1.138-1.131c-0.059-0.464-0.115-0.957-0.467-0.957    c-0.525,0-0.903,0.551-1.168,1.219c-0.263,0.695-0.406,1.362-0.406,1.855v5.973c0,1.276,0.115,1.625,1.049,1.771    c0.759,0.146,1.052,0.202,1.052,0.464c0,0.29-0.204,0.35-0.7,0.35c-0.322,0-0.729-0.117-2.597-0.117    c-1.489,0-1.896,0.117-2.219,0.117c-0.378,0-0.611-0.089-0.611-0.35c0-0.29,0.263-0.348,0.729-0.464    c0.699-0.087,0.845-0.232,0.845-1.363L174.328,61.645L174.328,61.645z"/>
		<path fill="#999999" d="M185.441,68.139c0,1.45,0.847,2.176,2.16,2.176c0.787,0,1.604-0.349,2.129-0.928    c0.351-0.406,0.584-0.897,0.584-1.422v-7.626c0-0.782-0.088-1.016-0.76-1.131c-0.671-0.088-0.875-0.06-0.875-0.465    c0-0.231,0.204-0.406,0.584-0.406c0.408,0,0.904,0.059,1.399,0.059c0.524,0,1.021-0.059,1.604-0.059    c0.291,0,0.494,0.088,0.494,0.666v1.104v8.613c0,0.955,0.206,1.217,0.729,1.274c0.556,0.058,0.7,0.146,0.7,0.377    c-0.029,0.231-0.174,0.319-0.815,0.551c-1.226,0.437-2.015,0.755-2.422,0.929c-0.175,0.059-0.263,0.088-0.379,0.088    c-0.089,0-0.146-0.116-0.146-0.35v-1.334c0-0.318-0.088-0.375-0.205-0.375c-0.115,0-0.232,0.085-0.408,0.23    c-0.611,0.521-1.662,1.652-3.412,1.652c-0.903,0-1.78-0.203-2.394-0.726c-0.584-0.521-1.021-1.306-1.021-2.465v-8.497    c0-0.58-0.233-0.783-0.815-0.842c-0.526-0.057-0.7-0.174-0.7-0.464c0-0.203,0.174-0.435,0.553-0.435    c0.556,0,1.111,0.059,1.664,0.059c0.381,0,0.963-0.059,1.283-0.059c0.408,0,0.467,0.29,0.467,1.045V68.139L185.441,68.139z"/>
		<path fill="#999999" d="M196.059,61.382c0-0.84-0.115-0.958-0.845-1.014c-0.409-0.06-0.644-0.06-0.644-0.349    c0-0.232,0.263-0.32,0.934-0.554c1.051-0.403,1.723-0.811,2.102-1.101c0.291-0.174,0.41-0.291,0.524-0.291    c0.147,0,0.204,0.232,0.204,0.493v0.898c0,0.696,0.029,0.756,0.178,0.756c0.232,0,0.699-0.494,1.312-0.986    c0.642-0.492,1.43-0.984,2.334-0.984c1.954,0,2.448,1.188,2.771,1.738c0.117,0.174,0.176,0.262,0.293,0.262    c0.086,0,0.174-0.088,0.318-0.202c0.645-0.522,1.811-1.798,3.619-1.798c0.814,0,1.634,0.261,2.216,0.752    c0.644,0.523,1.051,1.336,1.051,2.408v8.265c0,0.812,0.233,1.044,0.875,1.218c0.468,0.146,0.671,0.232,0.671,0.406    c0,0.262-0.146,0.378-0.496,0.378c-0.582,0-1.428-0.116-2.391-0.116c-0.934,0-1.723,0.116-2.305,0.116    c-0.264,0-0.525-0.059-0.525-0.349c0-0.174,0.232-0.318,0.496-0.377c0.934-0.232,1.282-0.377,1.282-1.565v-7.221    c0-1.565-0.815-2.351-2.216-2.351c-0.614,0-1.227,0.174-1.664,0.553c-0.438,0.376-0.699,0.898-0.699,1.535v8.004    c0,0.726,0.115,0.842,1.02,1.016c0.322,0.059,0.467,0.145,0.467,0.35c0,0.317-0.26,0.405-0.61,0.405    c-0.408,0-1.108-0.116-2.101-0.116c-0.935,0-1.635,0.116-2.16,0.116c-0.407,0-0.523-0.116-0.523-0.349    c0-0.145,0.116-0.348,0.35-0.406c0.935-0.203,1.139-0.261,1.139-1.449v-7.076c0-0.754-0.116-1.334-0.379-1.771    c-0.293-0.55-0.817-0.812-1.518-0.812c-0.701,0-1.371,0.262-1.867,0.696c-0.496,0.464-0.816,1.071-0.816,1.738v7.687    c0,0.608,0.204,0.842,0.816,0.985c0.496,0.146,0.612,0.146,0.612,0.406s-0.233,0.349-0.495,0.349    c-0.234,0-0.556-0.117-2.423-0.117c-1.312,0-1.545,0.117-1.896,0.117c-0.438,0-0.553-0.174-0.553-0.406    c0-0.203,0.174-0.349,0.467-0.406c0.904-0.115,1.078-0.377,1.078-1.422v-8.06H196.059z"/>
	</g>
</g>
<g>
	<g>
		<path fill="#FFFFFF" d="M3.511,79.939c0-0.191-0.048-0.238-0.655-0.238c-0.752,0-1.104,0.699-1.36,1.32    c-0.192,0.49-0.32,0.953-0.512,0.953c-0.16,0-0.208-0.08-0.208-0.382c0-0.063,0.016-0.206,0.032-0.397    c0.048-0.508,0.144-1.256,0.256-1.827c0.08-0.397,0.16-0.638,0.288-0.638c0.176,0,0.224,0.129,0.288,0.271    c0.064,0.127,0.144,0.255,0.368,0.255h4.479c0.512,0,0.688-0.097,0.784-0.255c0.08-0.112,0.144-0.271,0.32-0.271    c0.16,0,0.208,0.145,0.208,0.463c0,0.188-0.016,0.381-0.016,0.57c0,0.446-0.048,1.146-0.08,1.59    c-0.048,0.494-0.144,0.638-0.288,0.638c-0.224,0-0.272-0.462-0.368-0.955c-0.16-0.65-0.4-1.288-1.215-1.319    c-0.192,0-0.368-0.016-0.496-0.016c-0.304,0-0.352,0.08-0.352,0.223v8.109c0,0.477,0.176,0.699,0.4,0.73    c0.432,0.079,0.735,0.094,0.735,0.286c0,0.206-0.191,0.224-0.384,0.224c-0.272,0-0.576-0.064-1.471-0.064    c-1.087,0-1.296,0.064-1.536,0.064c-0.256,0-0.352-0.064-0.352-0.209c0-0.158,0.063-0.236,0.607-0.301    c0.448-0.049,0.528-0.271,0.528-0.826V79.939z"/>
		<path fill="#FFFFFF" d="M9.247,79.574c0-0.303-0.08-0.397-0.432-0.463c-0.288-0.062-0.384-0.078-0.384-0.223    c0-0.158,0.112-0.174,0.448-0.271c0.671-0.222,1.023-0.38,1.247-0.478C10.335,78.047,10.399,78,10.495,78    c0.064,0,0.096,0.064,0.096,0.287v4.529c0,0.096,0.032,0.143,0.096,0.143s0.128-0.047,0.191-0.094    c0.352-0.318,0.96-0.954,1.872-0.954c1.008,0,1.807,0.651,1.855,1.907v4.356c0,0.459,0.176,0.636,0.496,0.683    c0.272,0.049,0.368,0.098,0.368,0.225c0,0.143-0.112,0.191-0.24,0.191c-0.08,0-0.512-0.064-1.264-0.064    c-0.848,0-1.023,0.064-1.199,0.064c-0.192,0-0.288-0.051-0.288-0.209c0-0.127,0.095-0.158,0.256-0.189    c0.367-0.08,0.527-0.189,0.527-0.541v-4.34c0-0.383-0.096-0.684-0.271-0.891c-0.208-0.254-0.512-0.381-0.912-0.381    c-0.368,0-0.751,0.157-1.04,0.396c-0.271,0.239-0.448,0.557-0.448,0.907v4.229c0,0.35,0.176,0.523,0.624,0.619    c0.24,0.047,0.288,0.095,0.288,0.207c0,0.143-0.112,0.191-0.24,0.191c-0.128,0-0.288-0.064-1.392-0.064    c-0.832,0-0.975,0.064-1.216,0.064c-0.127,0-0.24-0.064-0.24-0.209c0-0.127,0.112-0.207,0.256-0.236    c0.48-0.049,0.576-0.207,0.576-0.781L9.247,79.574L9.247,79.574z"/>
		<path fill="#FFFFFF" d="M17.637,85.329c-0.288,0-0.4,0.11-0.4,0.364c0,1.64,0.704,2.91,1.808,2.91    c0.735,0,1.167-0.364,1.392-0.904c0.127-0.287,0.16-0.494,0.288-0.494c0.096,0,0.16,0.047,0.16,0.223    c0,0.24-0.081,0.525-0.224,0.795c-0.32,0.685-1.055,1.193-1.967,1.193c-1.807,0-2.895-1.527-2.895-3.641    c0-2.625,1.343-3.959,2.878-3.959c1.279,0,2.208,0.953,2.208,2.559c0,0.891-0.016,0.954-0.464,0.954H17.637z M17.269,84.455    c0,0.303,0.048,0.381,0.608,0.381c0.304,0,0.56-0.031,0.784-0.062c0.479-0.062,0.799-0.19,0.879-0.317    c0.128-0.127,0.176-0.304,0.176-0.668c0-0.938-0.432-1.511-1.055-1.511c-0.816,0-1.392,1.051-1.392,2.162V84.455z"/>
		<path fill="#FFFFFF" d="M31.76,88.414c0,0.096-0.032,0.189-0.08,0.271c-0.064,0.125-0.192,0.221-0.368,0.316    c-0.464,0.284-1.248,0.46-2.079,0.46c-2.287,0-4.078-1.955-4.078-5.022c0-3.371,2.031-5.438,4.302-5.438    c0.944,0,1.583,0.144,1.967,0.397c0.16,0.062,0.208,0.223,0.224,0.906v1.146c-0.032,0.46-0.08,0.508-0.24,0.508    c-0.16,0-0.256-0.19-0.448-0.7c-0.432-1.096-0.768-1.812-1.615-1.812c-1.359,0-2.479,1.957-2.479,4.771    c0,3.259,1.024,4.802,2.463,4.802c0.432,0,0.72-0.111,0.864-0.444c0.08-0.192,0.112-0.415,0.112-0.747v-2.035    c0-0.844-0.176-0.875-0.543-0.939c-0.384-0.047-0.544-0.062-0.544-0.285c0-0.096,0.112-0.19,0.352-0.19    c0.368,0.019,0.768,0.063,1.439,0.063c0.704,0,1.024-0.063,1.264-0.063c0.256,0,0.336,0.063,0.336,0.19    c0,0.238-0.144,0.176-0.496,0.285c-0.24,0.082-0.352,0.145-0.352,0.717L31.76,88.414L31.76,88.414z"/>
		<path fill="#FFFFFF" d="M33.907,83.771c0-0.525-0.16-0.638-0.576-0.638c-0.128-0.016-0.208-0.047-0.208-0.176    c0-0.158,0.096-0.205,0.336-0.271c0.32-0.108,0.72-0.236,1.104-0.555c0.208-0.207,0.304-0.318,0.432-0.318    c0.064,0,0.128,0.078,0.128,0.237c0.016,0.206,0.016,0.478,0.016,0.796c0,0.207,0,0.365,0.064,0.365    c0.144,0,0.224-0.334,0.463-0.699c0.224-0.334,0.544-0.699,1.12-0.699c0.608,0,0.959,0.478,0.959,1.193    c0,0.588-0.224,1.031-0.751,1.031c-0.432,0-0.576-0.285-0.624-0.619c-0.032-0.254-0.063-0.523-0.256-0.523    c-0.288,0-0.496,0.302-0.639,0.666c-0.145,0.381-0.225,0.748-0.225,1.019v3.274c0,0.699,0.064,0.891,0.576,0.972    c0.417,0.077,0.576,0.11,0.576,0.254c0,0.157-0.112,0.19-0.384,0.19c-0.176,0-0.4-0.063-1.423-0.063    c-0.816,0-1.04,0.063-1.216,0.063c-0.208,0-0.336-0.049-0.336-0.19c0-0.16,0.144-0.19,0.4-0.254    c0.384-0.05,0.464-0.129,0.464-0.748V83.771z"/>
		<path fill="#FFFFFF" d="M39.918,85.329c-0.288,0-0.4,0.11-0.4,0.364c0,1.64,0.704,2.91,1.808,2.91    c0.735,0,1.167-0.364,1.392-0.904c0.127-0.287,0.16-0.494,0.288-0.494c0.096,0,0.16,0.047,0.16,0.223    c0,0.24-0.081,0.525-0.224,0.795c-0.32,0.685-1.055,1.193-1.967,1.193c-1.807,0-2.895-1.527-2.895-3.641    c0-2.625,1.343-3.959,2.878-3.959c1.28,0,2.208,0.953,2.208,2.559c0,0.891-0.016,0.954-0.464,0.954H39.918z M39.55,84.455    c0,0.303,0.048,0.381,0.608,0.381c0.304,0,0.56-0.031,0.784-0.062c0.479-0.062,0.799-0.19,0.879-0.317    c0.128-0.127,0.176-0.304,0.176-0.668c0-0.938-0.432-1.511-1.055-1.511c-0.816,0-1.392,1.051-1.392,2.162V84.455z"/>
		<path fill="#FFFFFF" d="M47.615,83.246c0-0.746-0.208-0.986-0.624-0.986c-0.736,0-1.088,0.59-1.312,1.369    c-0.112,0.348-0.304,0.619-0.528,0.795c-0.192,0.143-0.399,0.223-0.639,0.223c-0.32,0-0.448-0.111-0.448-0.43    c0-0.939,1.359-2.4,3.311-2.4c0.608,0,0.992,0.078,1.232,0.285c0.256,0.191,0.352,0.51,0.352,0.938v4.771    c0,0.396,0.144,0.57,0.416,0.57c0.288,0,0.416-0.142,0.479-0.301c0.08-0.158,0.112-0.318,0.224-0.318    c0.096,0,0.128,0.079,0.128,0.271c0,0.348-0.448,1.335-1.424,1.335c-0.687,0-0.863-0.54-0.975-0.858    c-0.048-0.129-0.096-0.223-0.176-0.223c-0.127,0-0.368,0.301-0.751,0.588c-0.352,0.287-0.832,0.541-1.471,0.541    c-0.736,0-1.28-0.51-1.28-1.447c0-0.795,0.432-1.352,1.775-2.227c0.544-0.35,0.912-0.572,1.167-0.762    c0.416-0.256,0.544-0.416,0.544-0.765V83.246z M45.536,87.715c0,0.588,0.304,0.891,0.751,0.891c0.336,0,0.624-0.19,0.928-0.479    c0.288-0.286,0.4-0.492,0.4-0.889v-1.766c0-0.176-0.032-0.207-0.112-0.207c-0.081,0-0.16,0.016-0.368,0.174    c-0.336,0.224-0.655,0.494-0.896,0.765c-0.432,0.444-0.704,0.937-0.704,1.495L45.536,87.715L45.536,87.715z"/>
		<path fill="#FFFFFF" d="M52.456,87.841c0,0.589,0.192,0.716,0.496,0.716c0.288,0,0.464-0.223,0.592-0.43    c0.128-0.205,0.208-0.412,0.352-0.412c0.096,0,0.16,0.047,0.16,0.158c0,0.207-0.32,1.525-1.599,1.525    c-0.432,0-0.768-0.111-0.992-0.349c-0.24-0.239-0.352-0.62-0.352-1.129v-5.104c0-0.143-0.08-0.205-0.176-0.236    c-0.096-0.018-0.256-0.018-0.368-0.018c-0.144-0.017-0.256-0.031-0.256-0.205c0-0.099,0.096-0.207,0.304-0.416    c0.448-0.396,0.816-0.824,1.375-1.778c0.16-0.287,0.192-0.382,0.304-0.382c0.096,0,0.16,0.031,0.16,0.349v1.542    c0,0.256,0.08,0.352,0.319,0.352h0.72c0.272,0,0.352,0.047,0.352,0.271c0,0.238-0.064,0.334-0.384,0.334h-0.751    c-0.192,0-0.256,0.062-0.256,0.317V87.841L52.456,87.841z"/>
		<path fill="#FFFFFF" d="M56.243,85.329c-0.288,0-0.4,0.11-0.4,0.364c0,1.64,0.704,2.91,1.807,2.91    c0.736,0,1.167-0.364,1.392-0.904c0.128-0.287,0.16-0.494,0.288-0.494c0.096,0,0.16,0.047,0.16,0.223    c0,0.24-0.08,0.525-0.224,0.795c-0.32,0.685-1.055,1.193-1.967,1.193c-1.807,0-2.895-1.527-2.895-3.641    c0-2.625,1.343-3.959,2.879-3.959c1.279,0,2.207,0.953,2.207,2.559c0,0.891-0.016,0.954-0.464,0.954H56.243z M55.875,84.455    c0,0.303,0.047,0.381,0.607,0.381c0.304,0,0.56-0.031,0.784-0.062c0.479-0.062,0.799-0.19,0.879-0.317    c0.128-0.127,0.176-0.304,0.176-0.668c0-0.938-0.432-1.511-1.055-1.511c-0.816,0-1.392,1.051-1.392,2.162L55.875,84.455    L55.875,84.455z"/>
		<path fill="#FFFFFF" d="M61.005,83.771c0-0.525-0.16-0.638-0.576-0.638c-0.128-0.016-0.208-0.047-0.208-0.176    c0-0.158,0.096-0.205,0.336-0.271c0.32-0.108,0.72-0.236,1.104-0.555c0.208-0.207,0.304-0.318,0.432-0.318    c0.063,0,0.128,0.078,0.128,0.237c0.016,0.206,0.016,0.478,0.016,0.796c0,0.207,0,0.365,0.064,0.365    c0.144,0,0.224-0.334,0.463-0.699c0.224-0.334,0.544-0.699,1.12-0.699c0.608,0,0.96,0.478,0.96,1.193    c0,0.588-0.224,1.031-0.752,1.031c-0.432,0-0.576-0.285-0.624-0.619c-0.032-0.254-0.064-0.523-0.256-0.523    c-0.288,0-0.496,0.302-0.64,0.666c-0.145,0.381-0.224,0.748-0.224,1.019v3.274c0,0.699,0.063,0.891,0.576,0.972    c0.416,0.077,0.576,0.11,0.576,0.254c0,0.157-0.112,0.19-0.384,0.19c-0.176,0-0.4-0.063-1.423-0.063    c-0.816,0-1.04,0.063-1.216,0.063c-0.208,0-0.335-0.049-0.335-0.19c0-0.16,0.144-0.19,0.399-0.254    c0.384-0.05,0.464-0.129,0.464-0.748V83.771z"/>
	</g>
	<g>
		<path fill="#FFFFFF" d="M1.838,94.553c0-0.898-0.175-1.275-0.7-1.363c-0.671-0.114-0.934-0.114-0.934-0.491    c0-0.378,0.438-0.406,0.729-0.406c0.438,0,1.021,0.06,1.517,0.06c0.496,0,1.138-0.06,1.576-0.06s0.496,0.261,0.962,1.188    c1.138,2.262,4.463,8.556,5.922,11.194c0.438,0.753,0.496,0.781,0.554,0.781c0.117,0,0.146-0.114,0.146-0.347V95.104    c0-1.42-0.321-1.826-0.904-1.914c-0.642-0.086-1.021-0.203-1.021-0.491c0-0.232,0.175-0.406,0.409-0.406    c0.321,0,0.788,0.117,2.013,0.117c0.671,0,1.226-0.117,1.722-0.117c0.379,0,0.496,0.088,0.496,0.377    c0,0.377-0.35,0.437-1.021,0.521c-0.583,0.117-0.788,0.522-0.788,1.394v15.834c0,0.696,0,0.755-0.583,0.755    c-0.438,0-0.496-0.117-1.138-1.363c-0.175-0.349-0.35-0.695-0.554-1.016c-2.188-4.146-4.493-8.236-6.623-12.439    c-0.292-0.61-0.467-0.957-0.642-0.957c-0.146,0-0.204,0.086-0.204,0.521v10.499c0,2.407,0.204,3.219,0.846,3.363    c0.729,0.175,1.43,0.059,1.43,0.58c0,0.262-0.175,0.32-0.496,0.32c-0.35,0-0.525-0.117-1.984-0.117    c-1.341,0-1.779,0.117-2.217,0.117c-0.262,0-0.379-0.117-0.379-0.291c0-0.406,0.875-0.465,1.225-0.609    c0.554-0.202,0.642-0.695,0.642-1.508L1.838,94.553L1.838,94.553z"/>
		<path fill="#FFFFFF" d="M18.163,103.484c-0.525,0-0.729,0.203-0.729,0.666c0,2.988,1.284,5.309,3.296,5.309    c1.342,0,2.129-0.667,2.538-1.652c0.233-0.522,0.292-0.898,0.525-0.898c0.175,0,0.292,0.088,0.292,0.404    c0,0.436-0.146,0.957-0.409,1.451c-0.583,1.247-1.925,2.176-3.588,2.176c-3.296,0-5.28-2.785-5.28-6.643    c0-4.783,2.451-7.222,5.251-7.222c2.334,0,4.026,1.741,4.026,4.669c0,1.624-0.029,1.74-0.846,1.74H18.163z M17.492,101.891    c0,0.551,0.087,0.696,1.109,0.696c0.554,0,1.021-0.06,1.429-0.116c0.875-0.115,1.458-0.348,1.604-0.58    c0.233-0.23,0.321-0.551,0.321-1.218c0-1.713-0.787-2.756-1.925-2.756c-1.488,0-2.538,1.915-2.538,3.944V101.891z"/>
		<path fill="#FFFFFF" d="M30.603,110.012c-0.146,0.463-0.262,0.812-0.933,0.812c-0.583,0-0.642-0.378-0.759-0.783l-3.354-10.615    c-0.292-0.897-0.526-1.159-0.846-1.245c-0.35-0.059-0.496-0.203-0.496-0.436c0-0.262,0.146-0.406,0.496-0.406    c0.67,0,1.284,0.117,1.925,0.117c0.641,0,1.284-0.117,1.896-0.117c0.379,0,0.583,0.088,0.583,0.377    c0,0.232-0.321,0.319-0.612,0.377c-0.321,0.088-0.642,0.262-0.642,0.784c0,0.261,0.03,0.521,0.292,1.274l1.984,5.947    c0.117,0.403,0.233,0.637,0.35,0.637c0.175,0,0.321-0.319,0.467-0.784l1.167-3.771c0.117-0.375,0.205-0.666,0.205-0.898    c0-0.317-0.205-0.898-0.671-2.146c-0.175-0.521-0.525-0.842-0.875-0.928c-0.321-0.117-0.613-0.175-0.613-0.437    c0-0.261,0.205-0.436,0.583-0.436c0.671,0,1.371,0.117,2.013,0.117c0.7,0,1.43-0.117,1.954-0.117c0.526,0,0.613,0.146,0.613,0.406    c0,0.29-0.32,0.348-0.642,0.406c-0.35,0.059-0.671,0.203-0.671,0.638c0,0.173,0.088,0.667,0.205,1.071L36,105.893    c0.117,0.406,0.233,0.812,0.409,0.812c0.146,0,0.292-0.606,0.438-1.101l1.604-5.656c0.117-0.405,0.146-0.87,0.146-0.957    c0-0.58-0.409-0.727-0.817-0.782c-0.408-0.06-0.846-0.117-0.846-0.437c0-0.231,0.175-0.436,0.467-0.436    c0.467,0,0.963,0.117,1.517,0.117c0.642,0,1.167-0.117,1.517-0.117c0.263,0,0.438,0.117,0.438,0.406    c0,0.348-0.233,0.377-0.496,0.492c-0.292,0.088-0.613,0.291-0.817,0.899l-3.122,10.875c-0.146,0.464-0.205,0.812-0.788,0.812    c-0.641,0-0.758-0.377-0.875-0.782l-1.984-6.845h-0.059L30.603,110.012z"/>
		<path fill="#FFFFFF" d="M57.858,110.271c0-0.319,0.321-0.406,1.08-0.522c0.816-0.087,1.183-0.405,1.183-1.74    c0-3.046-0.262-8.989-0.379-12.006c-0.029-0.435-0.058-0.579-0.146-0.579c-0.117,0-0.146,0.145-0.233,0.376    c-0.292,0.784-0.963,3.249-3.268,10.935c-0.963,3.188-0.846,3.826-1.43,3.826c-0.292,0-0.408-0.23-0.729-1.623    c-0.817-3.422-3.18-11.396-3.675-13.166c-0.059-0.231-0.117-0.348-0.263-0.348s-0.146,0.232-0.204,0.639    c-0.205,2.465-0.033,7.104-0.033,9.598c0,1.943-0.146,3.916,0.729,4.09c0.525,0.116,1.371,0.116,1.371,0.521    c0,0.232-0.146,0.406-0.554,0.406c-0.525,0-0.875-0.117-2.042-0.117c-1.05,0-1.517,0.117-1.867,0.117    c-0.262,0-0.467-0.029-0.467-0.406c0-0.405,0.467-0.377,0.963-0.492c0.7-0.203,0.816-0.871,0.904-2.264    c0.146-2.869,0.179-9.858,0.179-12.268c0-1.594,0-1.912-0.875-2.059c-0.525-0.086-1.021-0.146-1.021-0.465    c0-0.404,0.409-0.435,0.729-0.435c0.642,0,1.429,0.088,2.071,0.088c0.467,0,1.196-0.088,1.604-0.088    c0.35,0,0.438,0.028,0.583,0.464c1.021,3.539,2.013,7.104,3.034,10.643c0.233,0.871,0.321,1.451,0.555,1.451    c0.204,0,0.292-0.262,0.525-1.102c1.021-3.539,2.042-7.077,3.092-10.587c0.146-0.638,0.321-0.869,0.612-0.869    c0.409,0,1.138,0.088,1.663,0.088c0.583,0,1.459-0.088,2.013-0.088c0.263,0,0.525,0.117,0.525,0.405    c0,0.318-0.35,0.435-1.196,0.521c-0.379,0.029-0.583,0.436-0.583,1.624c0,2.64,0.1,10.064,0.188,13.544    c0.029,0.869,0.263,1.275,0.671,1.362c0.817,0.203,1.138,0.231,1.138,0.551s-0.263,0.378-0.671,0.378    c-0.496,0-1.138-0.117-2.509-0.117c-1.138,0-2.071,0.117-2.567,0.117c-0.437,0-0.7-0.117-0.7-0.378V110.271z"/>
		<path fill="#FFFFFF" d="M66.74,100.382c0-0.755-0.205-0.958-1.08-1.159c-0.292-0.06-0.409-0.174-0.409-0.348    c0-0.232,0.233-0.35,0.934-0.581c0.934-0.291,1.634-0.667,2.217-0.928c0.262-0.175,0.467-0.291,0.554-0.291    c0.175,0,0.233,0.116,0.233,0.437v1.393v9.513c0,0.869,0.029,1.246,0.992,1.449c0.525,0.146,0.7,0.202,0.7,0.464    c0,0.23-0.117,0.35-0.496,0.35c-0.554,0-1.079-0.117-2.421-0.117c-1.4,0-1.955,0.117-2.421,0.117c-0.263,0-0.438-0.117-0.438-0.35    s0.117-0.377,0.524-0.464c0.993-0.175,1.109-0.29,1.109-1.334v-8.15H66.74z M67.965,95.336c-0.729,0-1.371-0.607-1.371-1.711    c0-1.131,0.642-1.739,1.4-1.739c0.788,0,1.43,0.608,1.43,1.739c0,1.104-0.642,1.711-1.43,1.711H67.965z"/>
		<path fill="#FFFFFF" d="M73.553,92.986c0-0.551-0.146-0.726-0.788-0.84c-0.525-0.117-0.671-0.146-0.671-0.407    c0-0.231,0.117-0.317,0.525-0.435c1.167-0.378,1.955-0.668,2.479-0.898c0.408-0.203,0.555-0.291,0.7-0.291    c0.175,0,0.205,0.176,0.205,0.58v18.154c0,0.726,0.291,0.782,1.196,1.016c0.321,0.087,0.583,0.146,0.583,0.435    c0,0.231-0.205,0.378-0.438,0.378c-0.292,0-0.612-0.117-2.538-0.117c-1.78,0-2.101,0.117-2.421,0.117    c-0.205,0-0.467-0.088-0.467-0.378c0-0.231,0.262-0.377,0.496-0.435c0.992-0.146,1.138-0.436,1.138-1.189V92.986H73.553z"/>
		<path fill="#FFFFFF" d="M82.158,108.186c0,1.215,0.291,1.506,1.284,1.681c0.437,0.087,0.787,0.146,0.787,0.464    c0,0.23-0.146,0.35-0.583,0.35c-0.642,0-1.604-0.117-2.654-0.117c-0.992,0-1.78,0.117-2.247,0.117    c-0.613,0-0.758-0.117-0.758-0.35c0-0.262,0.146-0.377,0.583-0.464c0.875-0.116,1.138-0.378,1.138-1.566v-9.163    c0-0.464-0.321-0.552-0.7-0.609c-0.321-0.06-0.671-0.115-0.671-0.463c0-0.35,0.321-0.465,0.7-0.668    c0.35-0.203,0.671-0.494,0.7-1.188c0.059-2.06,0.467-3.595,1.196-4.669c0.73-1.016,1.78-1.537,3.005-1.537    c1.488,0,2.275,0.436,2.275,1.564c0,0.406-0.087,0.899-0.175,1.363c-0.117,0.522-0.379,0.957-0.759,0.957    c-0.525,0-0.758-0.726-0.963-1.421c-0.233-0.812-0.438-1.625-1.021-1.625c-0.758,0-1.196,1.104-1.196,4.408    c0,0.61,0.03,1.16,0.03,1.653c0.029,0.465,0.146,0.553,0.408,0.553h1.925c0.35,0,0.409,0.059,0.409,0.549    c0,0.464-0.029,0.553-0.379,0.553h-1.546c-0.67,0-0.787,0.174-0.787,0.754L82.158,108.186L82.158,108.186z"/>
		<path fill="#FFFFFF" d="M89.741,110.938c-3.18,0-5.338-3.162-5.338-6.931c0-3.771,2.159-6.933,5.368-6.933    c3.238,0,5.397,3.162,5.397,6.933c0,3.769-2.159,6.931-5.397,6.931H89.741z M89.858,110.126c1.838,0,2.655-2.987,2.655-5.829    c0-3.249-0.904-6.408-2.8-6.408c-1.867,0-2.684,2.986-2.684,5.829c0,3.247,0.934,6.408,2.801,6.408H89.858z"/>
		<path fill="#FFFFFF" d="M97.412,100.645c0-0.957-0.292-1.16-1.05-1.16c-0.233-0.029-0.379-0.09-0.379-0.32    c0-0.288,0.175-0.376,0.613-0.491c0.583-0.205,1.312-0.437,2.013-1.016c0.379-0.376,0.555-0.581,0.788-0.581    c0.117,0,0.233,0.146,0.233,0.438c0.029,0.375,0.029,0.869,0.029,1.447c0,0.379,0,0.667,0.117,0.667    c0.262,0,0.408-0.606,0.846-1.274c0.409-0.608,0.992-1.276,2.042-1.276c1.108,0,1.75,0.871,1.75,2.176    c0,1.072-0.409,1.886-1.371,1.886c-0.788,0-1.05-0.522-1.138-1.131c-0.058-0.464-0.117-0.957-0.467-0.957    c-0.524,0-0.904,0.551-1.167,1.219c-0.262,0.695-0.408,1.362-0.408,1.855v5.973c0,1.276,0.117,1.625,1.05,1.771    c0.758,0.146,1.05,0.202,1.05,0.464c0,0.29-0.204,0.35-0.7,0.35c-0.321,0-0.73-0.117-2.597-0.117    c-1.488,0-1.896,0.117-2.217,0.117c-0.379,0-0.613-0.089-0.613-0.35c0-0.29,0.263-0.348,0.729-0.464    c0.7-0.087,0.846-0.232,0.846-1.363L97.412,100.645L97.412,100.645z"/>
		<path fill="#FFFFFF" d="M114.562,108.357c0,0.781,0.088,0.985,0.263,0.985c0.671,0,0.788-1.276,1.138-1.276    c0.204,0,0.264,0.203,0.264,0.639c0,0.609-0.06,0.928-0.468,1.16c-0.175,0.115-0.671,0.289-1.079,0.464    c-0.699,0.29-1.459,0.608-1.75,0.608c-0.263,0-0.38-0.203-0.438-0.551c-0.116-0.726-0.146-0.986-0.32-0.986    c-0.146,0-0.38,0.349-0.847,0.754c-0.438,0.377-1.108,0.783-2.102,0.783c-2.917,0-4.404-2.697-4.404-6.728    c0-3.8,2.013-7.136,4.9-7.136c0.818,0,1.4,0.262,1.752,0.492c0.262,0.176,0.438,0.319,0.523,0.319    c0.117,0,0.146-0.059,0.146-0.174v-4.728c0-0.551-0.176-0.726-0.817-0.84c-0.524-0.117-0.671-0.146-0.671-0.408    c0-0.26,0.117-0.316,0.584-0.435c1.107-0.377,1.867-0.667,2.392-0.897c0.496-0.174,0.644-0.291,0.788-0.291    c0.116,0,0.146,0.146,0.146,0.521V108.357L114.562,108.357z M107.474,103.747c0,3.974,0.935,5.712,2.684,5.712    c0.467,0,0.963-0.115,1.343-0.406c0.379-0.289,0.642-0.695,0.642-1.306v-7.22c0-0.726-0.203-1.336-0.555-1.799    c-0.35-0.436-0.846-0.695-1.459-0.695c-1.107,0-2.654,1.335-2.654,5.685L107.474,103.747L107.474,103.747z"/>
		<path fill="#FFFFFF" d="M133.666,105.428c0,3.479-2.626,5.598-6.038,5.598c-1.487,0-3.149-0.318-3.705-0.84    c-0.321-0.319-0.438-0.871-0.467-2.494c0-0.812-0.029-1.916,0.089-2.496c0.086-0.287,0.174-0.348,0.378-0.348    c0.351,0,0.408,0.174,0.526,0.465c0.729,3.104,1.777,4.873,3.675,4.873c1.778,0,3.005-1.566,3.005-3.511    c0-2.088-1.4-3.307-3.005-4.378c-0.408-0.262-0.815-0.553-1.226-0.841c-1.691-1.16-3.297-2.496-3.297-4.988    c0-2.61,2.51-4.524,5.311-4.524c1.342,0,2.888,0.437,3.354,0.783c0.233,0.146,0.264,0.23,0.293,0.928v1.914    c0,1.422,0,1.596-0.379,1.596c-0.439,0-0.41-0.493-0.613-1.102c-0.672-2.263-1.604-3.277-2.946-3.277    c-1.312,0-2.451,1.102-2.451,2.523c0,2.491,1.983,3.596,3.938,4.842c1.81,1.189,3.559,2.494,3.559,5.25V105.428L133.666,105.428z"/>
		<path fill="#FFFFFF" d="M137.632,114.883c0,0.957,0.408,1.16,1.312,1.334c0.496,0.088,0.672,0.114,0.672,0.465    c0,0.172-0.204,0.318-0.787,0.318c-0.613,0-1.051-0.116-2.247-0.116c-1.079,0-1.867,0.116-2.42,0.116    c-0.526,0-0.671-0.116-0.671-0.35c0-0.202,0.029-0.348,0.438-0.435c1.107-0.262,1.254-0.291,1.254-1.51v-14.063    c0-0.783-0.115-0.929-0.643-1.102c-0.582-0.174-0.786-0.232-0.786-0.406c0-0.261,0.146-0.349,0.612-0.492    c1.049-0.465,1.837-0.899,2.333-1.188c0.379-0.231,0.526-0.379,0.642-0.379c0.118,0,0.204,0.088,0.204,0.407v1.131    c0,0.203,0.06,0.289,0.177,0.289c0.146,0,0.407-0.318,0.786-0.668c0.496-0.463,1.196-1.014,2.071-1.014    c2.538,0,4.377,2.898,4.377,6.93c0,3.654-1.896,6.787-4.814,6.787c-0.699,0-1.226-0.203-1.634-0.349    c-0.319-0.146-0.524-0.261-0.671-0.261c-0.204,0-0.204,0.201-0.204,0.551V114.883z M142.3,104.182    c0-3.395-0.903-5.453-2.567-5.453c-0.555,0-1.078,0.231-1.459,0.582c-0.407,0.316-0.642,0.78-0.642,1.273v7.311    c0,0.84,0.204,1.42,0.556,1.738c0.35,0.35,0.815,0.521,1.312,0.521c1.546,0,2.801-1.682,2.801-5.943L142.3,104.182L142.3,104.182z    "/>
		<path fill="#FFFFFF" d="M148.831,103.484c-0.522,0-0.728,0.203-0.728,0.666c0,2.988,1.281,5.309,3.295,5.309    c1.343,0,2.129-0.667,2.539-1.652c0.232-0.522,0.291-0.898,0.523-0.898c0.176,0,0.292,0.088,0.292,0.404    c0,0.436-0.146,0.957-0.407,1.451c-0.584,1.247-1.927,2.176-3.59,2.176c-3.297,0-5.279-2.785-5.279-6.643    c0-4.783,2.449-7.222,5.25-7.222c2.334,0,4.026,1.741,4.026,4.669c0,1.624-0.028,1.74-0.846,1.74H148.831z M148.16,101.891    c0,0.551,0.088,0.696,1.109,0.696c0.554,0,1.021-0.06,1.429-0.116c0.876-0.115,1.459-0.348,1.604-0.58    c0.233-0.23,0.32-0.551,0.32-1.218c0-1.713-0.787-2.756-1.926-2.756c-1.487,0-2.538,1.915-2.538,3.944L148.16,101.891    L148.16,101.891z"/>
		<path fill="#FFFFFF" d="M155.895,104.473c0-4.293,2.537-7.396,5.949-7.396c0.76,0,1.663,0.117,2.274,0.465    c0.7,0.377,0.729,0.493,0.729,1.247c0,0.435,0.028,0.755,0.028,1.101c0,0.293-0.06,0.756-0.088,1.018    c-0.086,0.578-0.29,0.667-0.7,0.667c-0.494,0-0.582-0.696-1.049-1.944c-0.379-1.014-0.729-1.507-1.575-1.507    c-1.634,0-2.946,2.176-2.946,5.276c0,4.293,1.459,5.947,3.209,5.947c1.051,0,1.75-0.438,2.306-1.307    c0.379-0.639,0.612-1.422,0.845-1.422c0.204,0,0.322,0.176,0.322,0.408c0,1.563-1.4,3.914-4.26,3.914    c-3.123,0-5.047-2.61-5.047-6.439v-0.027H155.895z"/>
		<path fill="#FFFFFF" d="M169.369,108.066c0,1.072,0.349,1.306,0.902,1.306c0.526,0,0.847-0.406,1.08-0.783    c0.232-0.377,0.381-0.754,0.644-0.754c0.174,0,0.29,0.087,0.29,0.29c0,0.377-0.583,2.784-2.916,2.784    c-0.789,0-1.4-0.203-1.809-0.638c-0.438-0.437-0.645-1.133-0.645-2.061v-9.309c0-0.262-0.145-0.377-0.318-0.438    c-0.176-0.027-0.468-0.027-0.672-0.027c-0.263-0.028-0.467-0.058-0.467-0.377c0-0.174,0.175-0.377,0.553-0.754    c0.818-0.725,1.489-1.509,2.512-3.25c0.289-0.52,0.349-0.695,0.553-0.695c0.175,0,0.293,0.06,0.293,0.641v2.812    c0,0.465,0.145,0.639,0.582,0.639h1.314c0.495,0,0.641,0.086,0.641,0.492c0,0.436-0.115,0.609-0.7,0.609h-1.37    c-0.352,0-0.467,0.115-0.467,0.579V108.066L169.369,108.066z"/>
		<path fill="#FFFFFF" d="M174.328,100.645c0-0.957-0.29-1.16-1.049-1.16c-0.233-0.029-0.381-0.09-0.381-0.32    c0-0.288,0.177-0.376,0.613-0.491c0.582-0.205,1.312-0.437,2.012-1.016c0.381-0.376,0.557-0.581,0.789-0.581    c0.115,0,0.233,0.146,0.233,0.438c0.029,0.375,0.029,0.869,0.029,1.447c0,0.379,0,0.667,0.114,0.667    c0.264,0,0.408-0.606,0.849-1.274c0.407-0.608,0.989-1.276,2.042-1.276c1.107,0,1.749,0.871,1.749,2.176    c0,1.072-0.408,1.886-1.371,1.886c-0.786,0-1.049-0.522-1.138-1.131c-0.059-0.464-0.115-0.957-0.467-0.957    c-0.525,0-0.903,0.551-1.168,1.219c-0.263,0.695-0.406,1.362-0.406,1.855v5.973c0,1.276,0.115,1.625,1.049,1.771    c0.759,0.146,1.052,0.202,1.052,0.464c0,0.29-0.204,0.35-0.7,0.35c-0.322,0-0.729-0.117-2.597-0.117    c-1.489,0-1.896,0.117-2.219,0.117c-0.378,0-0.611-0.089-0.611-0.35c0-0.29,0.263-0.348,0.729-0.464    c0.699-0.087,0.845-0.232,0.845-1.363L174.328,100.645L174.328,100.645z"/>
		<path fill="#FFFFFF" d="M185.441,107.139c0,1.45,0.847,2.176,2.16,2.176c0.787,0,1.604-0.349,2.129-0.928    c0.351-0.406,0.584-0.898,0.584-1.422v-7.626c0-0.782-0.088-1.016-0.76-1.131c-0.671-0.088-0.875-0.06-0.875-0.465    c0-0.231,0.204-0.406,0.584-0.406c0.408,0,0.904,0.06,1.399,0.06c0.524,0,1.021-0.06,1.604-0.06c0.291,0,0.494,0.088,0.494,0.666    v1.104v8.613c0,0.955,0.206,1.217,0.729,1.274c0.556,0.058,0.7,0.146,0.7,0.377c-0.029,0.231-0.174,0.319-0.815,0.551    c-1.226,0.437-2.015,0.755-2.422,0.929c-0.175,0.059-0.263,0.088-0.379,0.088c-0.089,0-0.146-0.116-0.146-0.35v-1.334    c0-0.318-0.088-0.375-0.205-0.375c-0.115,0-0.232,0.085-0.408,0.23c-0.611,0.521-1.662,1.652-3.412,1.652    c-0.903,0-1.78-0.203-2.394-0.726c-0.584-0.521-1.021-1.306-1.021-2.465v-8.497c0-0.58-0.233-0.783-0.815-0.842    c-0.526-0.058-0.7-0.174-0.7-0.465c0-0.203,0.174-0.435,0.553-0.435c0.556,0,1.111,0.06,1.664,0.06c0.381,0,0.963-0.06,1.283-0.06    c0.408,0,0.467,0.29,0.467,1.045V107.139L185.441,107.139z"/>
		<path fill="#FFFFFF" d="M196.059,100.382c0-0.84-0.115-0.958-0.845-1.014c-0.409-0.06-0.644-0.06-0.644-0.349    c0-0.232,0.263-0.32,0.934-0.554c1.051-0.403,1.723-0.812,2.102-1.101c0.291-0.174,0.41-0.291,0.524-0.291    c0.147,0,0.204,0.232,0.204,0.492v0.898c0,0.696,0.029,0.756,0.178,0.756c0.232,0,0.699-0.494,1.312-0.986    c0.642-0.492,1.43-0.984,2.334-0.984c1.954,0,2.448,1.188,2.771,1.739c0.117,0.173,0.176,0.261,0.293,0.261    c0.086,0,0.174-0.088,0.318-0.202c0.645-0.522,1.811-1.798,3.619-1.798c0.814,0,1.634,0.261,2.216,0.752    c0.644,0.523,1.051,1.336,1.051,2.408v8.265c0,0.812,0.233,1.044,0.875,1.218c0.468,0.146,0.671,0.232,0.671,0.406    c0,0.262-0.146,0.378-0.496,0.378c-0.582,0-1.428-0.116-2.391-0.116c-0.934,0-1.723,0.116-2.305,0.116    c-0.264,0-0.525-0.059-0.525-0.349c0-0.174,0.232-0.318,0.496-0.377c0.934-0.232,1.282-0.377,1.282-1.565v-7.221    c0-1.565-0.815-2.351-2.216-2.351c-0.614,0-1.227,0.175-1.664,0.553c-0.438,0.376-0.699,0.898-0.699,1.535v8.004    c0,0.726,0.115,0.842,1.02,1.016c0.322,0.059,0.467,0.145,0.467,0.35c0,0.317-0.26,0.405-0.61,0.405    c-0.408,0-1.108-0.116-2.101-0.116c-0.935,0-1.635,0.116-2.16,0.116c-0.407,0-0.523-0.116-0.523-0.349    c0-0.145,0.116-0.348,0.35-0.406c0.935-0.203,1.139-0.261,1.139-1.449v-7.076c0-0.754-0.116-1.334-0.379-1.771    c-0.293-0.55-0.817-0.812-1.518-0.812c-0.701,0-1.371,0.262-1.867,0.696c-0.496,0.464-0.816,1.071-0.816,1.738v7.687    c0,0.608,0.204,0.842,0.816,0.985c0.496,0.146,0.612,0.146,0.612,0.406s-0.233,0.349-0.495,0.349    c-0.234,0-0.556-0.117-2.423-0.117c-1.312,0-1.545,0.117-1.896,0.117c-0.438,0-0.553-0.174-0.553-0.406    c0-0.203,0.174-0.349,0.467-0.406c0.904-0.115,1.078-0.377,1.078-1.422v-8.06H196.059z"/>
	</g>
</g>
</svg>